/* XPM */
static char *result[] = {
/* columns rows colors chars-per-pixel */
"64 64 5 1 ",
"  c #9BB94E",
". c #BFBA5B",
"X c #79A863",
"o c #679175",
"O c white",
/* pixels */
"     ..  ......              ....   .....                   XXXX",
"   ............                .     .....                      ",
"  ........XXX......                                             ",
" XXXXXXXXXXXXX..........XXX                                     ",
"XXXXX  XXXXXXXXXXXXXXXXXXXXXXXXX                                ",
"XXX     XXXXXXXXXXXXXXXXXXXXXXXXXXXXXXXXX                    XXX",
"           XXXXXXXXXXXXXXXXXXXXXXXXXX                           ",
"            XXX    XXXXXXXXXXXX                                 ",
"o      ...  XX      X   XX                         ooooo    oooo",
"oo    ..... XX                                   oooooooo  ooooo",
".oo  ........XX             .....               ooo...ooooooo...",
"...o .........         ..........     ooooo  ooooo......oooo....",
"..............      ............     ooooooooooooo........o.....",
"................    ..........   oo ooo..ooooo..ooo.............",
"................                oooooo....ooo.....o.............",
"   .....XX.........             oo..oo......................... ",
"    ...XXXX.........        ..ooo.....................XXXX....  ",
"     XXXXXX......         ............   .....    ...XXXXXX  .  ",
"  XXXXXXXXX             .............     ...   XXXXXXXXXXX     ",
" XXXXXXXXXXX           ...   ......       ...  XXXXXXXXXXX      ",
"XXXXXX  XXXXX        ....     ...           .  XXXXXXXXXXXXXXX  ",
"XXXXX     XXXXX                              XXXXXXXXXXXXXXXXXXX",
"XXXXX                                  XXXXXXXXXX   XXXXXXXXXXXX",
"X  XX                  XXX                XXXXXX     XX   XXXXXX",
"    XX                XXXXX                  XXX     X      XXXX",
"               XXX   XXXXXX            ..                       ",
"              XXXXXXXXXXXXX           ....    ....              ",
"             XXXXXXXXXXXXXXXXX      ................        XXXX",
"XX  XXXX    XXXXXXXXXXXXXXXXXXXXXXX..............XXXX  XXXXXXXXX",
"XXXXXXXXXXXXXXXXXXXXXXXXXXXXXXXXX     ..........XXXXXXXXXXXXXXXX",
"XXXXXXXXXooooXXXXXXXXXXXXXXXXX         ...... XXX   XXXXXXXXXXXX",
"XXXXXXXXoooooo        ooooXXX      .........            XXXXXXXX",
"XXXXoooXooooooooooo  oooooooX    ...........       XXXXXXXXXXXXX",
"XXXooooooooooooooooooo...oooo   ...........          XXXXXXXXXXX",
"XXooooo....oooo....oo.....oooo...     .....            XXXXXXXXX",
"XXooo.......oo.................        ..... ..            XXXXX",
"oooo........o..................          .......           XXXXX",
"..o............................ ...       ...   .           ....",
"....................................                       ..  .",
"........   .....  ....  ............   ..                  .    ",
"    ...     ..      .    ...........  .....                     ",
"     ..     .            ...........................            ",
"            .            .....   .........                      ",
"                                             XXXXXX             ",
"..                                         XXXXXXXXX XXXX      .",
"...          XXX                         XXXXXXXXXXXXXXXXX   ...",
".......XXX  XXXXX                       XXXXXXXXXXXXXXXXXX......",
"......XXXXXXX  XXX      XXX           XXXXXX     XXXXXXXXXXXX...",
"..XXXXX  XXX    XXX    XXXXX   XX   XXXXXXX       XXX   XXXXXXX.",
"                      XXXXXXXXXXXX                XX            ",
"       XX     XXXX    XXXXXXXXXXXXXXX                           ",
" ooo XXXXX XXXXXXXX  XXXX   XXXXX                       oooooo  ",
"oooooXXXXXXXXXXXXXXXXXXX                 ooooo  ooo   ....ooooo ",
"oo..ooXXXXXXXXXXXXXXXXXX                oooooooooooo .......oooo",
"o....oo..XXX  XX   XXXX               ooo....ooo..oo.........ooo",
"..........XX        XXXXXXXXXX     oooo.......................oo",
"..  ........        XXXXXXXXXXXXX.oo....................XXX....o",
".    .........      XXXXX..................XXX.........XXXXX....",
"          ...      XX............      ..XXXXXXX..XXXXXXXXXXXXX ",
"XX                                           XXXXXXXXXXXXXXXXXXX",
"XXXXX   XXXXXX                                   XXXXXXXXXXXXXXX",
"XXXXXXXXXXXXXX                  ....                 XXXXXXXXXXX",
"XXXXXXXXXX...X                 ......            XXXXXXX   XXXXX",
"XXX      .....             .............    XXXXXXXXXXX     XXXX"
};
