/* XPM */
static char *result[] = {
/* columns rows colors chars-per-pixel */
"64 64 255 2 ",
"   c #1D1E1A",
".  c #28271B",
"X  c #36271B",
"o  c #36331E",
"O  c #261F23",
"+  c #2A2927",
"@  c #372B29",
"#  c #373529",
"$  c #3B322C",
"%  c #2F2E31",
"&  c #2A353A",
"*  c #393737",
"=  c #473218",
"-  c #412C25",
";  c #45372A",
":  c #473A35",
">  c #4F3A36",
",  c #4B3E3A",
"<  c #32421E",
"1  c #3D4531",
"2  c #4A452C",
"3  c #494539",
"4  c #564739",
"5  c #495839",
"6  c #555230",
"7  c #634C3C",
"8  c #66543B",
"9  c #725636",
"0  c #566835",
"q  c #6B6E3A",
"w  c #2A3C49",
"e  c #363944",
"r  c #483E42",
"t  c #36454A",
"y  c #374755",
"u  c #354E55",
"i  c #35546D",
"p  c #3D6170",
"a  c #494848",
"s  c #594845",
"d  c #585448",
"f  c #494F51",
"g  c #475756",
"h  c #5A5454",
"j  c #634E45",
"k  c #675647",
"l  c #755A4B",
"z  c #685856",
"x  c #775D55",
"c  c #587046",
"v  c #696449",
"b  c #78654A",
"n  c #727A4D",
"m  c #6A6458",
"M  c #786658",
"N  c #495C6C",
"B  c #725E61",
"V  c #486A77",
"C  c #516A76",
"Z  c #54747C",
"A  c #796866",
"S  c #746C6C",
"D  c #7A7768",
"F  c #825E3C",
"G  c #815C48",
"H  c #856647",
"J  c #94724D",
"K  c #856A59",
"L  c #897559",
"P  c #97785A",
"I  c #9B7C5D",
"U  c #A37C59",
"Y  c #836B65",
"T  c #876B66",
"R  c #8C7464",
"E  c #89776A",
"W  c #967967",
"Q  c #9B7B6B",
"!  c #876F71",
"~  c #8B7A73",
"^  c #977B73",
"/  c #A27E65",
"(  c #A37F71",
")  c #728839",
"_  c #788A3A",
"`  c #5F8348",
"'  c #6A854B",
"]  c #768B47",
"[  c #6C9349",
"{  c #779649",
"}  c #688B57",
"|  c #768B57",
" . c #6C9559",
".. c #769757",
"X. c #7CA74C",
"o. c #79A856",
"O. c #7CA65C",
"+. c #7CAB5C",
"@. c #7DB255",
"#. c #688C68",
"$. c #758E6E",
"%. c #6A9565",
"&. c #759566",
"*. c #7CA663",
"=. c #77AE66",
"-. c #7BAA63",
";. c #79A867",
":. c #979F3D",
">. c #99B33E",
",. c #879846",
"<. c #9A8559",
"1. c #889452",
"2. c #A5885D",
"3. c #A8955F",
"4. c #87A74B",
"5. c #93A74A",
"6. c #8BB449",
"7. c #9BB445",
"8. c #9CBA45",
"9. c #95B649",
"0. c #9CB54C",
"q. c #96BC4C",
"w. c #9CBA4C",
"e. c #82A554",
"r. c #8CA553",
"t. c #83AB53",
"y. c #85A55A",
"u. c #83AB5C",
"i. c #8BA958",
"p. c #96A956",
"a. c #8BB759",
"s. c #95B454",
"d. c #9BB555",
"f. c #95BC54",
"g. c #9CBB52",
"h. c #93B45C",
"j. c #9BB55B",
"k. c #94BB5B",
"l. c #9BBB5B",
"z. c #A6B749",
"x. c #A3B54C",
"c. c #A2BA4C",
"v. c #A9AF52",
"b. c #A4B553",
"n. c #ABB454",
"m. c #A3BA53",
"M. c #A7B95A",
"N. c #B6B856",
"B. c #BABB55",
"V. c #B5BC5B",
"C. c #BCBC5B",
"Z. c #87886C",
"A. c #9A8469",
"S. c #9C8372",
"D. c #9A8877",
"F. c #A78669",
"G. c #B18E66",
"H. c #B7966A",
"J. c #AC8C73",
"K. c #A58979",
"L. c #B18E77",
"P. c #AB937B",
"I. c #B39374",
"U. c #B8987A",
"Y. c #87A763",
"T. c #83AB63",
"R. c #82AC6B",
"E. c #8BB666",
"W. c #98B767",
"Q. c #94BB63",
"!. c #9ABB62",
"~. c #92B671",
"^. c #AFB76F",
"/. c #A9BC68",
"(. c #B4BC62",
"). c #BCBD63",
"_. c #B7BA69",
"`. c #B3BD6B",
"'. c #BCA477",
"]. c #ACB976",
"[. c #C1BB4D",
"{. c #C2BB5B",
"}. c #C4B95A",
"|. c #C19E77",
" X c #C2BC62",
".X c #C4BA66",
"XX c #C4A579",
"oX c #C8B27D",
"OX c #9BC14C",
"+X c #99C257",
"@X c #A7C44D",
"#X c #A9C158",
"$X c #B3C35C",
"%X c #BAC35C",
"&X c #9BC267",
"*X c #ABC469",
"=X c #BCC363",
"-X c #B8C366",
";X c #B3C36B",
":X c #AEC377",
">X c #B7C275",
",X c #C3C25C",
"<X c #C3C366",
"1X c #C2C278",
"2X c #37758C",
"3X c #497989",
"4X c #567786",
"5X c #4F7691",
"6X c #49828F",
"7X c #578696",
"8X c #648590",
"9X c #538BA1",
"0X c #6B94AD",
"qX c #998783",
"wX c #A78C82",
"eX c #A79686",
"rX c #BA9A84",
"tX c #A69495",
"yX c #BCA587",
"uX c #B4B190",
"iX c #BEBEA4",
"pX c #C19F80",
"aX c #C6A686",
"sX c #D3AC8A",
"dX c #CAB587",
"fX c #D5B987",
"gX c #D4B58C",
"hX c #DCBC8B",
"jX c #C0AF9A",
"kX c #C7B797",
"lX c #D7B996",
"zX c #DCBC93",
"xX c #E2BD8B",
"cX c #E3BE96",
"vX c #CDBEA2",
"bX c #ADC188",
"nX c #DCC38A",
"mX c #DCC694",
"MX c #D6CD99",
"NX c #E2C58C",
"BX c #E4C493",
"VX c #E6CA97",
"CX c #E9D69A",
"ZX c #EFDB99",
"AX c #EEE09A",
"SX c #D7C8A9",
"DX c #D5D3A9",
"FX c #E7CEA9",
"GX c #E9D7A3",
"HX c #F3DBA6",
"JX c #EDE3A6",
"KX c #F5E7A8",
"LX c #F5EBAC",
"PX c #F8EBB5",
"IX c #F9F1B0",
/* pixels */
">.c.8.8.w.$X%Xv.N.). XC.{.%X%Xz.0.w.w.w.w.w.g.g.x.b.m.b.n.$X$X$X$Xc.x.m.#X$X{.,XC.n.x.w.f.+Xq.q.w.w.l.g.w.8.z.c.z.c.m.d.i.y.4.t.",
"w.9.+X-X-XV.V.(._.).).M.=XV.%Xz.z.z.c.c.c.g.g.g.m.g.0.0.0.m.m.@Xc.c.0.d.c.%XB.V.=XV.n.g.+Xg.q.w.w.w.d.c.w.c.8.8.8.w.g.f.j.Q.k.Q.",
"Q.!./.;X^._.;X`.:X:Xr.p.4./._.=X{.B.B.n.z.x.d.f.g.f.g.+Xg.w.w.m.c.w.w.m.g.m.x.m.b.z.0.w.w.w.c.c.w.g.w.w.0.c.c.w.m.g.g.q.w.f.f.f.",
"~.y.y.r.p.5.5.r.r.y.O.o.e.h.^._.).).).-X*X*X*X*XX.X.6.a.k.f.k.f.w.w.j.l.l.d.g.w.w.g.m.m.b.0.z.8.g.g.w.8.m.g.g.g.g.q.q.OXOXOXf.g.",
"t.u.i.e.5.b.m.4.o.+.=.o.u.y.i.y.e.u.y.u.u.u.+.+.T.u.u.+.u.u.y.e.!.!.!.W.Q.Q.f.f.6.OXg.g.c.c.z.c.g.g.w.w.f.f.f.g.w.w.w.8.OXOX6.a.",
"t.X.4.k.l.d.l.l.@.@.@.o.O.T.Y.R.-.=.-.-.;.*.;.*.-.;.-.*.*.T.T.T.+.o.e.e.4.4.X.6.>.6.q.w.x.c.8.w.c.w.w.w.f.+Xf.w.g.w.c.w.9.>.6.6.",
"k.f.+Xg.l.d.l.g.q.6.+X@.T.O.*.O.-.+.+.+.O.-.-.T.-.y.-.T.T.O.O.O.+.t.t.t.6.q.q.OXOX+Xc.c.0.g.g.q.c.x.c.d.g.w.g.d.w.w.m.b.j.b.h.d.",
"Q.f.q.w.g.j.j.l.>.OXq.k.O.R.u.E.Q.Q.E.u.t.+.u.+.u.u.O.y.+.X.O.E.a.k.k.g.5.5.6.q.q.w.8.c.x.l.g.g.8.w.j.!.!.!.Q.j.g.g.d.b.W.~./.W.",
" .~.g.c.c.n.x.-X%X@Xd.j.y.T.k.f.l.d.d.k.6.j.l.+X4.X.6 ' { q < 2 2 2 q _ 1 3 1 5.l.9.>.@X7.w.l.f.f.k.~. .%.%. . .E.&Xa.!.{ } &.$.",
"| ..W.g.b.v.=XC.B.%XV./.p.4.s.@Xw.g.w.m.9.g.f.g.4.# M tX6 b '.yXuXU.b 6 eXE o ' !./.0.7.g.g.+Xk.Q.o.} %.$.$.%.&...~.~.[ ..&.} &.",
":X{ ] /.v.=XB.{.,X X XC.V.5.6.s.g.w.g.@Xg.4._ q o l jXvXMXmXlXVXMXVXMXdXSXjXz X c | e.l.!.h.k.~. .} ..bX^.^.1.| %.$.$.%.} /.>XC.",
"-X;X^._ M.%X{.[.{.}.}.C.<XV.j.j.g.w.9.8.,.$ k , - D.SXdXA.dXCXHXIXZXVXGXlXSXA.; : h * | ~.{ [ | $.$.].;XC.<X.X].| $.#.&.:X;X,X[.",
"%XV.=X=XM.$XB.,X}.}.}. XC.$Xb.b.m.c.x.:.# : E D.M yXFXA.J .XdXKXKXZXnXVXCXmXyXM S.~ , + '  .| $.$.$.uX_.<XB.B.V.>X:X1.].`.).<X.X",
"C.C.C.C.,X<XN.B.}.}..X{.V.<XV.-Xx.7._ @ d M K.J.I gXlXXX<.3.CXLXKXZXNXNXHXmXgXF.A.^ x z + 5 Y.uX$.$.,.>X).{.[.,XB.).(._.<X_.).).",
").).).C.B.{.,XC. X).=X=X%X,XB.B.5.# * 3 ~ eXJ.A.U.gXnXmX<.3.nXKXKXKXZXNXhXnXVXaXI A.P.~ : $ * | ^.^.,._.n.C.B.{.}. X X XN. XN.,X",
"n.n.n.).C.C.C._.5.5./.$XB.B.{.V.2 , A qXwXL.Q <.'.mXnXnXnX1XMXIXIXCXNXfXBXBXhXH.<.J.U.K.K.Y : ; V.).N.N.<XC.<XV.).)..X}..X[.B.z.",
"d.m.b.n.-X$X/.t.Y.y.r.(.=XC.C.<.4 K wXK.L.I.L./ 2.xXxXNXZXVXnXJXLXCXfXoXxXVXBXH./ K.pX|.rXS.R 3 ,.%XV.{.).`.p.4.r.p.`.).).V.z.z.",
"f.g.j.j.j.i.a.e.*.Y.i./.p.,.q : ~ rXK.aXgXyXL.( G.NXxXVXCXNXAXIXIXmXoX2.sXxXFXU.W aXU.zXpXL.rX~ @ 6 1.j.`.r.o.o.+.X.r.p.(.V.c.0.",
"f.a.t.u.u.O.T.O.-.T.[ 0 + , : @ S.J.'.mXcXcXrXP H.NXNXoXNXAXAXKXAXoX<.'.sXBXhXU.P pXgXcXgXyXK.D.$ e * O 5  .=.=.-.o.a.s.m.w.9.8.",
"a.a.o.+.T.O.T.T.-...@ * , S S : S.I.aXaXzXgXL.( |.NXNXNXnXAXAXJXIXJXBXxXBXNXBXaX( / lXhXpXrXrXA.- ! S r * &  .=.=.o.E.Q.k.f.OXOX",
"u.@.+.-.o.@.a.Q.+.c # m S S z k K.L.F.aXhXXXU.L.|.cXcXhXdXnXAXIXJXIXIXNXBXfXNXH./ W fXhXU.aXL.wXk s ! S A # } ;.=.-.-.u.u.u.a.Q.",
"o.+.+.o.@.a.a.+XX.: z M ! j > T rXJ.I.cXgXaX/ Q sXVXxXXXXXCXPXLXIXIXCXKXNXxXXXG.K sXH.hXcXI.F.wX! : z A A z 3  .-.;.O.*.-.O.T.+.",
"y.u.u.O.u.&Xl.q.6 # z ~ R s > x K.L.rXlXcXlX( L.sXcXoX2.3.mXLXVXAXKXNXVXhXnXsXXXJ.U.H.XXaXI.rXP.M ; j Y ! z @ $ O.Y.*.T.Y.*.T.T.",
"i.Q.W.i.e.W.j.g.q > Y R S.T j x P.G.U.lXBXsXJ./ zXVXBXoX2.dXGXLXLXLXmXhXhXNXhXXXyXrXhXXXF.aXrXP.z 4 Y ^ D.A > { W.W.u.u.O.O.Y.y.",
"q.g.l.j.r.p.j.j.$ j T K.wXW x T L.pXpXgXXXXXH./ sXxXxXnX'.fXJXKXIXLXJXoXH.fXVXgXP.U.gXxXaXL.rXP.K x ! ( ^ T z 6 p.l.a.a.a.@.4.4.",
"w.q.w.l.j.b.!.,.: A ^ W ( R x T L.sXU.XXfXfXF.P hXBXnXnXCXHXIXLXIXJXoXoX2.NXhXzXU.L.cXBXsXaXaXwXT l T wXwX^ K > ,.w.+Xa.f.a.k.+X",
"+Xq.8.8.w.l.Q.# r Y R K.( T x ^ L.aXXXdXBXdXI L.gXhXxXnXmXMXLXIXLXAXnX<.G.fXVXdXJ.J.|.xXsXL.rXL.( K K ( wX( T r 0 g.f.+Xa.+Xa.Q.",
"+Xf.+Xg.f.h.e.r B ! ( rX( j K wXK.G.I.aXzXhXL.K.cXZXVXoX3.fXJXLXIXAX'.3.XXBXhXsXP pXhXcXcXG.J.L.( K l ^ wX( ! B > s.k.a.@.@.t.+.",
"o.@.a.a.+.[ c r z T ( rXR l z W L.L.L.sXVXlXrXF.VXFXfXoX<.<.'.IXLXJXCXBXVXxXNXGXaXI hXBXzXaXU.L.R l l ( wX( Y j 3 c ..-.=.-.-.;.",
"*.*.a.T.+.-.` * z T ( ( Q l K wXwXL.J.aXdXU.F.Q G.hXHXVXdXoXMXLXLXKXCXxXVXVXhXXX/ I.BXxXzXaXG.J.wXx x ^ ( ^ T B 3 } +.;.=.;.;.;.",
"R.&.+.o.o.;.t d z T T ( Q x j ^ rXaXaX|.fXgXyXF.gXmXAXGXCXGXLXJXIXKXGXVXZXVXBX'.P aXxXcXcX|.G.L.Q j x W ( Q A z h a *.-.;.;.;.R.",
"R.Y.-.=.=.=.c t B T ( wX^ K x ^ wXJ.L.XXfXhXU.F.gXHXHXJXJXPXJXIXIXLXHXPXCXHXGXfX9 G.xXxXsXsXL.rXK.x K T K.W T A 5 ` *.*.*.;.Y.;.",
";.R.;.=.} %.#.f B T / ( Q l l K.P.eXF.XXnXnXyXL SXPXDXDXuXZ.uXkXMXuXZ.uXDXMXPXFX= A.XXxXsXG.L.jXP.R l ^ L.Q ! B f *.-.-.O.-.-.-.",
"R.;.=.%.%.%.#.1 B T Q wX^ > j tXqXb eXmXnXCXA.8 PXDXv D . . d 3 2 d . . D v DXFX8 E VXxXcXaXb D.P.l j ^ ( / wXB 3 *.+.-.-.-.O.+.",
";.;.%.#.%...n a B ^ ( wX! > l wX3 m R '.JXCX8 eX~ ; # +   + + s f + % + . + @ ^ tX5 DXJXU.L m 5 wXj 7 ! ( ^ ! B * ..T.-.-.*.;.R.",
"R.;.%.$.&.W.4 : ! ! ( wX! r ! D.K ; k SXPXJXE : $ 4 A : @ t O B z + e @ 1 m s ; 1 D PXPXSXq o m K.T > T ( / T T * ' Q.o.y.*.R.;.",
"| ..&.} :Xn.q r T T Q T j z ^ rXaXF H jXbXD * % m k j D.A - O T T X - K D.7 k m & & D iXSXK b U.aX^ z j T K.K ! s ] k.4.i.e.i.y.",
"uX^.1.:XV.,.: z Y K W x @ j R lXFXcXlXSX;   e * ; M L K ^ ! > T ! > ^ R L W l @ * 1 + 1 DXkXVXzXyXK s $ x W K T B 0 5.#X*X*X*X;X",
"^.1X_._.n.a h x R H P Y s ; L SXlXaXl j # $ * , = = 9 W 8 2 @ D.^ @ 4 k A.9 = = 3 * * # m M SXdXyXL ; > A ^ K K z z v #X#Xm.m.#X",
".X.XC.C.3.% : s K K T R A 3 kXDXS.j 4 . s m x Q / J 2 9 J 8 o 7 7 = l F.H = G 2.S.E M 3 @ d j ^ SXuX; E ^ W L K s n 5.#Xc.z.8.c.",
"v.x.z.N.N.6 ; B L l b eXqX3 SXSXZ.% $ d l M J / ( / U J W A.F.F./ F.J.P.A.F.G.F.G.U K l k : @ z vXvXA z eXK b K Y q 9.g.w.w.g.w.",
"c.z.x.x.5.3 h Y L > k ^ M A eXv S % * f d l G F G x l M k M v k l b d n b M M l G G b k h a e % A v ! , A k 4 A ! k ,.g.g.OX+Xw.",
"9.w.w.7.0.# s z A A qXtXA s .   y y y y % O @ 4 r + y t t t y & + u 1 t & e % * s @ + * e w y w + # A qXtXD.M qXA c 4.q.w.0.w.w.",
"@Xg.w.m.8.5 : s , A tX~ s $ @ e N V p N N e h ! f e 4X4X4X3X5Xi p 9XZ 2Xp Z y a A s e N 4X4X5XV & + * s qXtXE 3 z v g.w.m.m.x.m.",
"$X#Xm.w.8._ 2 1 g D S z X a r e 3X3X7X8XN % T qXh f 5X7X0X7X0Xi i 0X9X9X2X7Xi g D.R 1 N 3X6X2X3Xt * r @ h A S h 5 q g.d.z.n.z.B.",
"$X$XV.n.x.0.4.0 + + % - > z * y 3X3X6X3X4X% T ^ z e Z N C i 4Xu u 7XZ 5XV C 1 d K.R & Z 7X6X2X7Xw r j > : * 3 d X.t.j.b.M.C.N.{.",
"V.<X X{.%X$Xs.{ 5 < + , 7 A f y 5X9X3X3XV % j W 7 ; m #.| D Z.L D A.Z.| D A $ j A.L & V 6X6X2X3Xw a A j s #  .*.O.u.*X*X;X<XC.{.",
"%XV.C.C.N.M.p.{ q 1 @ K M S.h t 3X6X2X7X4Xw k ~ d # M M | J L F.2.2.3.<.K x $ 7 S.k & Z 6X7X9X3Xy a ^ K M $ ` O.T.y.Y.r.5.M.C.%X",
"(.-X5.5.4.5.,.t.] < X L U / , f 3X6X3X4XZ t e S a + 3 d D D M M M M E ^ ! A 3 # S 1 w V 7X6X7X3XN : ^ / K = # i.y.E.i.e.4.6.,.;X",
"l.j.j.W.k.s.s.4.0 + X F.U I : g Z 7X8XZ Z u t t * # $ 3 : 3 $ @ @ $ : 3 ; ; + * w * N 8X4XV 4X8Xy @ W / W X . 4.W.W.~.&Xk.!.j.j.",
"l.f./.W.&Xk.E. .0   . W G.W O * y g g u g d a 3 k m m b d k j 4 4 2 2 2 4 7 k M 3 3 a g g f g u % @ W U W - . e.W.~.W.~.E.W.d.M.",
"E.[ [  .T.+.-...c   s F.P W @ 1 Z.Z.| E Z.E A.D.W A.rXP.F.K.J.K.D.D.D.L L A.A.A.D.D.Z.E E $.~ m * @ Q K L 4 # p.) [ ..] ..1.!.g.",
"&.} %. .&.R.&.&.c + 4 A.l W 3 d L A.<.F.P U J F J J G.U J U P H L b q F J P H F J I P L P P <.E f % ^ l F.s @ N.-X^.{ ..}  . .~.",
"| Y.bXbX| | Y.y.' + 3 k l K.d a n J H 9 9 H U P U G.2.3.U U 2.L L L P I F.2.2.2.<.I L H l b L W s * M 7 ^ s q .X X).(.bX| $.%.%.",
"1.].].;X].,._ ;XW.1 @ X 2 k 1 1 5 8 b v 4 4 l E W W b M 8 4 7 3 4 ; ; k R K.S.^ W b 6 4 b M 8 > % % : ; 4 : <..X XN.<X_.].&.#.%.",
"^.`.V.-X_.>X XN.V.d.] ] { 4.r.6.:.9.s.a.o.{ o.o.X.{ 4.,.4.,.s.g.b.d.l._ ) ] ] ^.^._.N.v.M.p.].W.3.^.p.3.v.v.C.)._.1XC.).>XbX$.#.",
"=XB.z.n.B.$X-XC.N.<X X).v.z.d.m.z.8.l.Q.y.*.+.u.t.i.r.e.r.p.t.4.4.;X,.,.^._..X).%XV.-XV.;X;X_._.B.,X_.).N.B.=X;Xi.Y.i./.`._.].1.",
"$Xn.z.z.z.V.V.-X=XN.B.B.,XN.m.g.c.c.m.h.Y.y.e.e.r.j.;X;X/./.*X*X*X*XM.-X_.).<XC.N.$X*X5.,.r._.1XC.V.(.`.=X$X/.i.&.;.o.a.*X-X`.`.",
"d.g.g.w.m.g.m.b.b.b.-X$X$X8.0.w.g.d.j.i.i.W.*X*X$X$X-X-X-X-X$X$X-X0.c.c.7.8.z.M.;Xs.4.e.i.y.Y.y.;X/.Y.i.X.o.u.-.R.R.+.X.i.e.Y.~.",
"o.a.k.h.k.g.g.g.s.l.j.k.g.+Xf.g.g.M.!.h.j./.M.x.c.m.b.x.b.x.b.z.c.8.c.8.c.OXf.m.j.p.j.*XW.e.e.u.5.r.O.-.@.=.=.-.;.*.o.u.o.O.Y.R.",
"O.-.u.t.t.k.l.l.e.E.R.O.o.X.h.#X9.9.w.#Xc.c.c.8.8.8.w.w.g.w.w.w.8.c.w.0.c.m.0.0.w.m.m.g.f.g.f.9.6.4.i.Y.-.+.=.=.;.y.T.T.T.R.;.*.",
";.-.=.o.o.@.t.t.i...-.O.E.e.s.s.@XOXw.w.8.>.8.8.@X8.w.g.g.0.0.c.$X$XV.(.m.d.m.w.7.w.w.w.9.OX+XOXl.k.~.~.E.-.o.+.u.u.y.o.T.R.;.;.",
"-.-.-.+.u.t.X.4.e.p.;X*X-X5.b.c.9.9.w.OXc.w.w.w.9.q.g.m.b.x.N.,X{.C.}..X).n.b.x.c.8.q.+Xf.k.a.E.a.o.u.;.T.T.+.t.Q.!.+X@.o.o.;.=.",
"-.-.R.E.Q.+XE.Q.W./.%X%X).N.n.8.m.w.w.0.w.c.m.g.l.g.l.*X-XC.[.}.}.}..XC.).).V.$X8.OXOXq.4.t.y.@.@.o.R.R.*.O.t.l.l.p.+XE.o.=.=.=."
};
