/* XPM */
static char *result[] = {
/* columns rows colors chars-per-pixel */
"64 64 211 2 ",
"   c #0F172B",
".  c #131A2D",
"X  c #181D2F",
"o  c #1A1F31",
"O  c #171C31",
"+  c #1D2232",
"@  c #1E283E",
"#  c #242533",
"$  c #262936",
"%  c #2B2A36",
"&  c #2C2C39",
"*  c #24253A",
"=  c #332F36",
"-  c #322E3B",
";  c #2C313D",
":  c #35323C",
">  c #3C343B",
",  c #38363B",
"<  c #443A3B",
"1  c #4B3E3D",
"2  c #41373B",
"3  c #4B413D",
"4  c #53433E",
"5  c #5D4A3F",
"6  c #644D3F",
"7  c #1F2B40",
"8  c #292D45",
"9  c #26324A",
"0  c #293448",
"q  c #3D3741",
"w  c #3D3A41",
"e  c #353C4E",
"r  c #32344C",
"t  c #2C3A53",
"y  c #2C3B55",
"u  c #343C59",
"i  c #383754",
"p  c #302E48",
"a  c #433B43",
"s  c #4A3E45",
"d  c #403A46",
"f  c #274558",
"g  c #3D4552",
"h  c #35455B",
"j  c #3F535B",
"k  c #3F585F",
"l  c #394967",
"z  c #2C5567",
"x  c #3B5974",
"c  c #32536A",
"v  c #356375",
"b  c #4A4146",
"n  c #4E4248",
"m  c #474446",
"M  c #554443",
"N  c #5D4A42",
"B  c #52444A",
"V  c #534B4C",
"C  c #5A484A",
"Z  c #5B4D51",
"A  c #585652",
"S  c #454E56",
"D  c #634D43",
"F  c #634D4C",
"G  c #665042",
"H  c #6C5444",
"J  c #6D534B",
"K  c #755A46",
"L  c #7C5E47",
"P  c #7B5D4B",
"I  c #725749",
"U  c #644E51",
"Y  c #635453",
"T  c #6C5355",
"R  c #6A5C55",
"E  c #675B57",
"W  c #725658",
"Q  c #745B5A",
"!  c #7B5D5C",
"~  c #765A54",
"^  c #7D624A",
"/  c #696659",
"(  c #75635B",
")  c #7B635E",
"_  c #7B6B5D",
"`  c #776855",
"'  c #7E715F",
"]  c #4B5869",
"[  c #445B7D",
"{  c #7E6760",
"}  c #7B7B66",
"|  c #6C686C",
" . c #83634A",
".. c #8D6A4D",
"X. c #85644A",
"o. c #916C4D",
"O. c #986F4E",
"+. c #9B724F",
"@. c #8E6951",
"#. c #856357",
"$. c #936D50",
"%. c #8E7755",
"&. c #84775B",
"*. c #947452",
"=. c #9C7351",
"-. c #917954",
";. c #977C57",
":. c #A27752",
">. c #A47952",
",. c #AC7D54",
"<. c #A2764F",
"1. c #856461",
"2. c #896763",
"3. c #856D64",
"4. c #8C6A65",
"5. c #916D67",
"6. c #926F68",
"7. c #8D7368",
"8. c #897564",
"9. c #95736A",
"0. c #9A766C",
"q. c #95796C",
"w. c #9D7A6E",
"e. c #907E66",
"r. c #9E7E70",
"t. c #A17F6F",
"y. c #A07D70",
"u. c #7F8068",
"i. c #9E8159",
"p. c #A4855B",
"a. c #AC8A5E",
"s. c #AD8458",
"d. c #B38255",
"f. c #B38659",
"g. c #B58C5C",
"h. c #9A846B",
"j. c #918161",
"k. c #8D8D70",
"l. c #9E8171",
"z. c #86876C",
"x. c #A58373",
"c. c #A98675",
"v. c #AC8A76",
"b. c #AE8B79",
"n. c #A68B75",
"m. c #B18E7A",
"M. c #AA9675",
"N. c #B5927B",
"B. c #B8967B",
"V. c #BD9A7E",
"C. c #B49677",
"Z. c #B08C69",
"A. c #B4A27D",
"S. c #C19E7E",
"D. c #C4A27E",
"F. c #C7AB7F",
"G. c #3D6881",
"H. c #3E768A",
"J. c #445F81",
"K. c #436D89",
"L. c #456583",
"P. c #44758E",
"I. c #427B8B",
"U. c #447C93",
"Y. c #497B91",
"T. c #3E8193",
"R. c #448196",
"E. c #448499",
"W. c #448B9D",
"Q. c #478A9B",
"!. c #478B97",
"~. c #458FA0",
"^. c #4F9AA8",
"/. c #51A9B2",
"(. c #BDA883",
"). c #B0AE83",
"_. c #C29F80",
"`. c #C5A381",
"'. c #C9A682",
"]. c #CCAB82",
"[. c #C2AD86",
"{. c #D1AE85",
"}. c #C9B68A",
"|. c #D4B386",
" X c #D9B687",
".X c #D9B788",
"XX c #DDBB89",
"oX c #D6B888",
"OX c #CFBF90",
"+X c #E1BF8B",
"@X c #D5C38E",
"#X c #D7CC95",
"$X c #DBD49A",
"%X c #C6C28F",
"&X c #E4C28C",
"*X c #E8C58E",
"=X c #E6CB93",
"-X c #E9CD94",
";X c #EAD296",
":X c #EBD699",
">X c #E4DC9E",
",X c #EDDA9C",
"<X c #E4D49A",
"1X c #E7DDA0",
"2X c #ECE6A4",
"3X c #F1E4A2",
"4X c #F3EBA6",
"5X c #F5EEA8",
"6X c #F6F0AA",
"7X c #F9F3AB",
"8X c None",
/* pixels */
"8X8X8X8X8X8X8X8X8X8X8X8X8X8X8X8X8X8X8X8X8X8X8X8X8X8X8X8X8X8X8X8X8X8X8X8X8X8X8X8X8X8X8X8X8X8X8X8X8X8X8X8X8X8X8X8X8X8X8X8X8X8X8X8X",
"8X8X8X8X8X8X8X8X8X8X8X8X8X8X8X8X8X8X8X8X8X8X8X8X8X8X8X8X8X8X8X8X8X8X8X8X8X8X8X8X8X8X8X8X8X8X8X8X8X8X8X8X8X8X8X8X8X8X8X8X8X8X8X8X",
"8X8X8X8X8X8X8X8X8X8X8X8X8X8X8X8X8X8X8X8X8X8X8X8X8X8X8X8X8X8X8X8X8X8X8X8X8X8X8X8X8X8X8X8X8X8X8X8X8X8X8X8X8X8X8X8X8X8X8X8X8X8X8X8X",
"8X8X8X8X8X8X8X8X8X8X8X8X8X8X8X8X8X8X8X8X8X8X8X8X8X8X8X8X8X8X8X8X8X8X8X8X8X8X8X8X8X8X8X8X8X8X8X8X8X8X8X8X8X8X8X8X8X8X8X8X8X8X8X8X",
"8X8X8X8X8X8X8X8X8X8X8X8X8X8X8X8X8X8X8X8X8X8X8X8X8X8X8X8X8X8X8X8X8X8X8X8X8X8X8X8X8X8X8X8X8X8X8X8X8X8X8X8X8X8X8X8X8X8X8X8X8X8X8X8X",
"8X8X8X8X8X8X8X8X8X8X8X8X8X8X8X8X8X8X8X8X8X8X8X8X8X8X8X8X8X8X8X8X8X8X8X8X8X8X8X8X8X8X8X8X8X8X8X8X8X8X8X8X8X8X8X8X8X8X8X8X8X8X8X8X",
"8X8X8X8X8X8X8X8X8X8X8X8X8X8X8X8X8X8X8X8X8X8X8X8X8X8X8X8X8X8X8X8X8X8X8X8X8X8X8X8X8X8X8X8X8X8X8X8X8X8X8X8X8X8X8X8X8X8X8X8X8X8X8X8X",
"8X8X8X8X8X8X8X8X8X8X8X8X8X8X8X8X8X8X8X8X8X8X8X8X8X8X8X8X8X8X8X8X8X8X8X8X8X8X8X8X8X8X8X8X8X8X8X8X8X8X8X8X8X8X8X8X8X8X8X8X8X8X8X8X",
"8X8X8X8X8X8X8X8X8X8X8X8X8X8X8X8X8X8X8X8X8X8X8X8X8X8X$ 8X8X8X& > w & 8X8X& , o 8X8X8X8X8X8X8X8X8X8X8X8X8X8X8X8X8X8X8X8X8X8X8X8X8X",
"8X8X8X8X8X8X8X8X8X8X8X8X8X8X8X8X8X8X8X8X8X8X8X8X8X+ ` M.V ` C.F.].M.` V M.&.$ 8X8X8X8X8X8X8X8X8X8X8X8X8X8X8X8X8X8X8X8X8X8X8X8X8X",
"8X8X8X8X8X8X8X8X8X8X8X8X8X8X8X8X8X8X8X8X8X8X8X8X. R F.*X@X&X&X*X;X;X&XoX*XF.R . 8X8X8X8X8X8X8X8X8X8X8X8X8X8X8X8X8X8X8X8X8X8X8X8X",
"8X8X8X8X8X8X8X8X8X8X8X8X8X8X8X8X8X8X8X8X8X: V q : h.*X|.e.oX-X3X5X,X=X=X&X*Xh.: w V : 8X8X8X8X8X8X8X8X8X8X8X8X8X8X8X8X8X8X8X8X8X",
"8X8X8X8X8X8X8X8X8X8X8X8X8X8X8X8X8X8X8X8X. : 9.x.( F.*Xj.} [.}.5X5X:X&X;X;X&XF.) l.q.> . 8X8X8X8X8X8X8X8X8X8X8X8X8X8X8X8X8X8X8X8X",
"8X8X8X8X8X8X8X8X8X8X8X8X8X8X8X8X8X8X8X+ Z { x.v.9.oX&XD.h.n.>X5X5X4X=X*X,X*X Xx.r.r.{ Z + 8X8X8X8X8X8X8X8X8X8X8X8X8X8X8X8X8X8X8X",
"8X8X8X8X8X8X8X8X8X8X8X8X8X8X8X8X8X# & w q.N.b.0.C.+X&XXXh.m.}.4X6X3X:X&X&X&X&X].0.y.m.q.w & # 8X8X8X8X8X8X8X8X8X8X8X8X8X8X8X8X8X",
"8X8X8X8X8X8X8X8X8X8X8X8X8X8X8X8X  q 3.c.b.b.t.0.'.+X&X&XXXoX;X6X6X:X&X&X&X+X&XC.w.v.m.b.c.3.q   8X8X8X8X8X8X8X8X8X8X8X8X8X8X8X8X",
"8X8X8X8X8X8X8X8X8X8X8X8X8X8X8X8Xa 3.c.b.m.m.b.y.t.XX+X-X,X*X=X4X5X,XoX].&X&X&XB.r.y._._._.x.3.w 8X8X8X8X8X8X8X8X8X8X8X8X8X8X8X8X",
"8X8X8X8X8X8X8X8X8X8X8X8X8X8X8X$ q.m.m._..X`.m.y.c.+X*X-X;X;X;X6X7X#X[.n.{.+X*XB.0._._.XX_.x._.0.$ 8X8X8X8X8X8X8X8X8X8X8X8X8X8X8X",
"8X8X8X8X8X8X8X8X8X8X8X8X+ q a & l.m._.XX&X.XN.0.C.&X&X&X*X;X3X6X4X[.w.S.{.&X+X_.9._.oX+X{._.c.r.& a a o 8X8X8X8X8X8X8X8X8X8X8X8X",
"8X8X8X8X8X8X8X8X8X8X$ > s 2.1.- l.N.`.].+XXXN.y.B.&X&X+X=X,X,X4X5X2X=X+X*X+X+X`.r.0.XXoX_._._.r.- 1.1.s q $ 8X8X8X8X8X8X8X8X8X8X",
"8X8X8X8X8X8X8X8X8X8X% W 2.2.U Z v.b.m.'.+X'.m.c.S.&X&X+X|.XX3X5X5X7X4X=X+X+X+X_.r.y.{.+X_._.m.c.V U 2.2.W & 8X8X8X8X8X8X8X8X8X8X",
"8X8X8X8X8X8X8X8X8Xa T 2.2.T - 7.m.m.N..XXX`.r.y.{.&X&XS.(.,X4X5X5X4X3X,X*X+X_.b.6._._..XXXm.b.m.7.- W 2.1.T a 8X8X8X8X8X8X8X8X8X",
"8X8X8X8X8X8X8X8XO $ U 5.5.B e Q c.m.N.XX&XXXy.c.XX&XXXx.n.#X3X:X3X3X=X=X+X+X|._.r._._._.].B.m.b.Q a V 2.4.T $ . 8X8X8X8X8X8X8X8X",
"8X8X8X8X8X8X8X8X8Xa 1.0.y.2.Z Q m.b.N.+X&X{.m.0..X&X+X].x.}.>X4X5X4X*XXX+X+X+X`._._..X_.b._.`.N.Y s 1.9.0.2.a 8X8X8X8X8X8X8X8X8X",
"8X8X8X8X8X8X8X8XX Z 6.x.c.5.W 2.m.`._.{.].'.m.t. X&X+X+XD.oX2X6X6X5X,X}.B.+X&XXXN.N.XX+X'.N.B.m.1.W 5.y.y.5.Z o 8X8X8X8X8X8X8X8X",
"8X8X8X8X8X8X8X8X- #.6.0.c.5.W 4.B.]._._.|.|.v.6. X&X&X&X-X3X5X5X5X5XOX[.x. X&XXXN.N.XX+X{.`._.m.2.W 5.v.b.9.1.- 8X8X8X8X8X8X8X8X",
"8X8X8X8X8X8X8X. s 2.0.b.w.2.W y.m._._.{.&X Xw.N.+X+X+X&XXX#X6X6X5X2XOX0.C.@X&X{.v.m.`.&X].N.V.m.x.W 1.0.v.y.4.n . 8X8X8X8X8X8X8X",
"8X8X8X8X8X8X8Xa ! 2.r.m.r.W ) c.b.m.m.'.&XXXc.b.XX;X&X XN.@X>X6X6X>X(.m.D.&X&X{.0.B.|.+X+XN.b.b.c.! W r.v.y.2.W > 8X8X8X8X8X8X8X",
"8X8X8X8X8X8X+ w U 2.y._.5.U T 0.m.b.m.XX&X+X_.y.$X;X&XF.v.w.[.5X6X3X;X&X*X+X&X-X(.x.XX&XXX'.m.m.9.T U r.b.r.2.C - o 8X8X8X8X8X8X",
"8X8X8X8X8X8X8X- T 2.0.r.5.W ! c.m.m.N._.'._.x.0.b..X;X=XXX].#X4X6X5X-X&X-X-X&X`.r.N.+X&X|.'.m.b.x.! W 0.b.0.2.! a 8X8X8X8X8X8X8X",
"8X8X8X8X8X8X+ B U 1.6.c.w.! U 0._.`._._.|.{._.v.|.;X3X;X*X,X3X3X6X4X,X*X;X-X&XS.0.'.&X+X&X'.b.b.0.U ! 5.r.0.1.T Y # 8X8X8X8X8X8X",
"8X8X8X8X8X8X. # Q 5.c.b.w.1.W y.b.b.m.'.XX&X_.r.XX,X3X3X3X6X2X6X6X2X5X3X,X3X,X|.Z b..X+X|.{.m._.c.T 1.5.y.9.2.Q # O 8X8X8X8X8X8X",
"8X8X8X8X8X8X8X# ! 4.0.c.0.U E c.m.b.n.'.&XXX(.7.$X6X$X$X).k.).%X%X).k.).$X#X7X#X, l.`.&X].v.N.`.N.2.Q 0.b.0.6.! * 8X8X8X8X8X8X8X",
"8X8X8X8X8X8X8X$ ! 4.0.b.r.s Z _.x._ B.oX&X=Xh.A 1X#X/ } $ + A b m A + $ } / #X>XA e.&X&XXX(.{ x.m.R C 0.m.y.y.1.$ 8X8X8X8X8X8X8X",
"8X8X8X8X8X8X8X# ! 5.c.c.5.s Z c.m R 8.(.4X>XA M.z.m $ + + 8 + F N o 8 * + # w u.M.S >X3XA.&.R m c.Z s 5.0.y.4.! # 8X8X8X8X8X8X8X",
"8X8X8X8X8X8X. - 1.4.y.c.1.d 7.x.( : Y @X7X2X} w = 4  .< 8 i $ P I $ i 8 w ^ 3 , , } 2X7X$XY : ) n.7.a 1.0.6.4.1.- . 8X8X8X8X8X8X",
"8X8X8X8X8X8X8Xs 4.2.w.6.m Y q._.'./ _ }.}.u.; $ P J D p.` ; #  ...# & ` p.G J P % & z.%X#X' ( V._.7.Y b 7.r.2.4.n 8X8X8X8X8X8X8X",
"8X8X8X8X8X8X& U 2.2.9.T & C 7.oX;X&X|.@X, O r r : P >.@.%.%., o.=.: ;.;...;.I - p e . w $X|.&X&X`.3.V & W 9.2.4.Y & 8X8X8X8X8X8X",
"8X8X8X8X8Xw Y T 1.4.4.1.a : %.+X XF.E E = - w d : = H >.H 3 & =.;.= 3 H :.H = - g > ; ; / / @X|.'.{ & s 2.0.4.1.U Y q 8X8X8X8X8X",
"8X8X8X8X8X* * s 1.2.4.9.3.w oX-Xh.V V X N P ^ ;.p...3 H ..H = N N = K s.P 3 ^ p.p.-.^ 4 + A A h.*X].q 1.0.7.4.2.s # $ 8X8X8X8X8X",
"8X8X8X8X8X8X# Q 2.Q { m.r.m #X=Xj.$ = D ~ X.$.,.d.,.=.O.>.s.s.s.s.s.g.g.s.s.f.d.d.>...P I 2 $ R @XoX_ E b.{ Q 2.! # 8X8X8X8X8X8X",
"8X8X8X8X8Xo n 2.1.b C q.{ { M.A ' % < M D I L L L L P L L ^ L P L L L  .^ ^ ^ L L ^ P G D M 2 # ` ( _ n 3.Z n 2.2.s o 8X8X8X8X8X",
"8X8X8X8X8X# s T 4.( w.b.{ n $ O e h u h 8 o & M > @ h t h t h 8 @ l 8 f 0 y @ , M % + r u u h i o - 3.l.v.r.{ r.{ q o 8X8X8X8X8X",
"8X8X8X8X8X. * Z d 3.N.7.m ; # t [ [ [ [ [ & F @.4 f P.R.U.Y.E.f z ^.I.U.v H.f 5 @.M & [ K.K.K.[ r # & V l.m.3.s T a 8X8X8X8X8X8X",
"8X8X8X8X8X8X# + Z ) 3.Y + s 2 t K.P.E.E.G.; @.d.6 z ~.~.~.!./.z v /.~.~.H.!.z 6 d.o.: G.U.U.P.Y.y > a # Y 3.) R & & 8X8X8X8X8X8X",
"8X8X8X8X8X8X8X8X$ o $ & < J < t P.U.E.Y.G.& X.d.6 f H.v H.z !.f f T.T.T.v H.f 6 d.:.0 H.~.E.P.E.y > J 1 - % . $ 8X8X8X8X8X8X8X8X",
"8X8X8X8X8X8X8X8X8X8X. a M @.M f W.W.R.P.G.; G >.6 , ^ ' &.&.j.&.%.i.j.j.' ` > 6 d.@.& H.R.P.K.P.r s  .F s X 8X8X8X8X8X8X8X8X8X8X",
"8X8X8X8X8X8X8X8X8X8X#  .@.,.G u P.U.P.W.H.: G >.6 = ^ ..*.O.>.f.f.f.s.>...^ = 6 ,.H 8 I.W.W.E.P.h B :.@.P # 8X8X8X8X8X8X8X8X8X8X",
"8X8X8X8X8X8X8X8X8X8X# +.>.>.< l K.R.U.P.H.0 < ..3 # 4 H $.O. .L L  .+.>.+.X.> >  .< 0 H.R.R.W.R.x q :.,...# . 8X8X8X8X8X8X8X8X8X",
"8X8X8X8X8X8X8X8X8X. # >.d.<.% x P.~.~.P.H.x t e 0 8 p e e u 9 8 8 9 e e e 0 8 9 r 9 v W.E.K.U.U.l & :.,.<.# . 8X8X8X8X8X8X8X8X8X",
"8X8X8X8X8X8X8X8X8X. % >.d.<.# 8 g k k S j S j g A R R | ] ] ] m g g g g g Z Y / g g S k k j j j 8 # :.:.=.: . 8X8X8X8X8X8X8X8X8X",
"8X8X8X8X8X8X8X8X8X. 5 ,.:.<.# 1 ;.-.-.-.%.%.i.i.-.f.S.g.a.a.a.a.a.a.i.-.-.;.p.p.a.i.%.-.%.%.%. .< $ >.@.=.N . 8X8X8X8X8X8X8X8X8X",
"8X8X8X8X8X8X8X8X8X  6 >.L ,.< M =.>.>.:.:.>.O. ...<.d.,.=.:.:.......X.^ o.>.o.^ *.>.>.>.=.>.>.=.4 % >.K :.D . 8X8X8X8X8X8X8X8X8X",
"8X8X8X8X8X8X8X8X8X. 1 H H d.D M X.o...K K ..=.=.s.d.f.d.>.,.,.O.+...o.<.,.d.,.>.>.>...L L  .=.=.D > @.D <.D 8X8X8X8X8X8X8X8X8X8X",
"8X8X8X8X8X8X8X8X8X8X% # < G # # < G H K 1 < ^ O.>.+.X.X.N 4 3 > 3 > = 6 +.d.d.f.=.L < 3 K K D 1 + % < = 4 > 8X8X8X8X8X8X8X8X8X8X",
"8X8X8X8X8X8X8X8X8X8X8X8X8X8X8X8X8X8X8X8X8X8X8X8X8X8X8X8X8X8X8X8X8X8X8X8X8X8X8X8X8X8X8X8X8X8X8X8X8X8X8X8X8X8X8X8X8X8X8X8X8X8X8X8X",
"8X8X8X8X8X8X8X8X8X8X8X8X8X8X8X8X8X8X8X8X8X8X8X8X8X8X8X8X8X8X8X8X8X8X8X8X8X8X8X8X8X8X8X8X8X8X8X8X8X8X8X8X8X8X8X8X8X8X8X8X8X8X8X8X",
"8X8X8X8X8X8X8X8X8X8X8X8X8X8X8X8X8X8X8X8X8X8X8X8X8X8X8X8X8X8X8X8X8X8X8X8X8X8X8X8X8X8X8X8X8X8X8X8X8X8X8X8X8X8X8X8X8X8X8X8X8X8X8X8X",
"8X8X8X8X8X8X8X8X8X8X8X8X8X8X8X8X8X8X8X8X8X8X8X8X8X8X8X8X8X8X8X8X8X8X8X8X8X8X8X8X8X8X8X8X8X8X8X8X8X8X8X8X8X8X8X8X8X8X8X8X8X8X8X8X",
"8X8X8X8X8X8X8X8X8X8X8X8X8X8X8X8X8X8X8X8X8X8X8X8X8X8X8X8X8X8X8X8X8X8X8X8X8X8X8X8X8X8X8X8X8X8X8X8X8X8X8X8X8X8X8X8X8X8X8X8X8X8X8X8X",
"8X8X8X8X8X8X8X8X8X8X8X8X8X8X8X8X8X8X8X8X8X8X8X8X8X8X8X8X8X8X8X8X8X8X8X8X8X8X8X8X8X8X8X8X8X8X8X8X8X8X8X8X8X8X8X8X8X8X8X8X8X8X8X8X",
"8X8X8X8X8X8X8X8X8X8X8X8X8X8X8X8X8X8X8X8X8X8X8X8X8X8X8X8X8X8X8X8X8X8X8X8X8X8X8X8X8X8X8X8X8X8X8X8X8X8X8X8X8X8X8X8X8X8X8X8X8X8X8X8X",
"8X8X8X8X8X8X8X8X8X8X8X8X8X8X8X8X8X8X8X8X8X8X8X8X8X8X8X8X8X8X8X8X8X8X8X8X8X8X8X8X8X8X8X8X8X8X8X8X8X8X8X8X8X8X8X8X8X8X8X8X8X8X8X8X",
"8X8X8X8X8X8X8X8X8X8X8X8X8X8X8X8X8X8X8X8X8X8X8X8X8X8X8X8X8X8X8X8X8X8X8X8X8X8X8X8X8X8X8X8X8X8X8X8X8X8X8X8X8X8X8X8X8X8X8X8X8X8X8X8X"
};
