/* XPM */
static char *result[] = {
/* columns rows colors chars-per-pixel */
"64 64 247 2 ",
"   c #301717",
".  c #1B241E",
"X  c #2A261B",
"o  c #2A3126",
"O  c #2F3026",
"+  c #44241F",
"@  c #442B24",
"#  c #3A412E",
"$  c #575C2C",
"%  c #4C4A36",
"&  c #4E5433",
"*  c #575636",
"=  c #625C31",
"-  c #5A682C",
";  c #596639",
":  c #5E7037",
">  c #636233",
",  c #6F6A34",
"<  c #69693A",
"1  c #687536",
"2  c #767338",
"3  c #747C3C",
"4  c #7C7B3C",
"5  c #4B5B46",
"6  c #546845",
"7  c #53704C",
"8  c #686C43",
"9  c #6E7243",
"0  c #767B47",
"q  c #766464",
"w  c #817E3D",
"e  c #907458",
"r  c #A87B56",
"t  c #B17C5B",
"y  c #B45965",
"u  c #827C67",
"i  c #AA6D64",
"p  c #AC7768",
"a  c #C66163",
"s  c #6C8D39",
"d  c #768839",
"f  c #7B8C3C",
"g  c #7A923C",
"h  c #5D8558",
"j  c #698A4A",
"k  c #798948",
"l  c #6C944C",
"z  c #799548",
"x  c #688B57",
"c  c #788A57",
"v  c #6B935A",
"b  c #769353",
"n  c #789A55",
"m  c #72935B",
"M  c #7A955B",
"N  c #749B5C",
"B  c #7EA44C",
"V  c #7BA84B",
"C  c #7BA554",
"Z  c #75AB54",
"A  c #7DAB54",
"S  c #76A559",
"D  c #7BA65C",
"F  c #75AA5B",
"G  c #7CAA5C",
"H  c #7DB158",
"J  c #698C68",
"K  c #748E65",
"L  c #778968",
"P  c #6B9263",
"I  c #689668",
"U  c #6C946B",
"Y  c #759664",
"T  c #72946B",
"R  c #6D8C73",
"E  c #699278",
"W  c #759774",
"Q  c #6FA867",
"!  c #75A463",
"~  c #7CA663",
"^  c #77AC64",
"/  c #7CAA63",
"(  c #7DA56A",
")  c #74AC6B",
"_  c #7CAA6A",
"`  c #7AB164",
"'  c #7CA973",
"]  c #878D3D",
"[  c #9DB83F",
"{  c #A9B23D",
"}  c #858848",
"|  c #889646",
" . c #839C43",
".. c #98974B",
"X. c #898B56",
"o. c #968B50",
"O. c #859354",
"+. c #989558",
"@. c #B08B4E",
"#. c #A98A53",
"$. c #AF9655",
"%. c #A79758",
"&. c #87A744",
"*. c #83A44D",
"=. c #8BA44B",
"-. c #84AA4C",
";. c #8BAB4D",
":. c #93A34C",
">. c #95A949",
",. c #8BB34A",
"<. c #95B745",
"1. c #9CB444",
"2. c #9CBA45",
"3. c #94B54C",
"4. c #9CB54C",
"5. c #95BB4C",
"6. c #9CBA4C",
"7. c #82A554",
"8. c #8BA554",
"9. c #83AA53",
"0. c #8BAC53",
"q. c #84A55B",
"w. c #89A55C",
"e. c #83AB5B",
"r. c #8BAB5C",
"t. c #94A856",
"y. c #83B155",
"u. c #8CB454",
"i. c #8DBA57",
"p. c #85B35A",
"a. c #8CB45B",
"s. c #8DBB5B",
"d. c #94B454",
"f. c #9CB553",
"g. c #95BB53",
"h. c #9CBB53",
"j. c #93B55B",
"k. c #9BB55B",
"l. c #95BA5B",
"z. c #9BBB5B",
"x. c #ABAE4A",
"c. c #A2B545",
"v. c #A2BA46",
"b. c #A3B54C",
"n. c #AAB44C",
"m. c #A2BA4D",
"M. c #AAB94D",
"N. c #B6B84C",
"B. c #A5AA52",
"V. c #A4B652",
"C. c #ABB453",
"Z. c #A3BA53",
"A. c #ABBB54",
"S. c #A2B75B",
"D. c #ADB65B",
"F. c #A1BB5B",
"G. c #ABBC5B",
"H. c #B4B454",
"J. c #BBB655",
"K. c #B3BC55",
"L. c #BBBB56",
"P. c #B7B55A",
"I. c #B5BC5B",
"U. c #BCBC5B",
"Y. c #858964",
"T. c #889464",
"R. c #979767",
"E. c #87A764",
"W. c #82AB63",
"Q. c #82AC6B",
"!. c #94A86B",
"~. c #84B161",
"^. c #8CB766",
"/. c #8DB963",
"(. c #8CB46B",
"). c #94B663",
"_. c #9CB664",
"`. c #94BB63",
"'. c #9ABB63",
"]. c #94B36B",
"[. c #9EB66B",
"{. c #93BB6A",
"}. c #9ABC6C",
"|. c #8AB574",
" X c #95BA74",
".X c #B3AA6E",
"XX c #A4BD63",
"oX c #ACBC63",
"OX c #A7BA6B",
"+X c #ABBD6D",
"@X c #B4B663",
"#X c #B4BC63",
"$X c #BBBD63",
"%X c #B6B668",
"&X c #B4BC6C",
"*X c #BBBD6A",
"=X c #AEBA76",
"-X c #AAB878",
";X c #B4BD73",
":X c #B8BA76",
">X c #C1BB4D",
",X c #C3B959",
"<X c #C2BC5B",
"1X c #D39E7A",
"2X c #C2BC62",
"3X c #C4BC66",
"4X c #C9AE73",
"5X c #9BC14C",
"6X c #9CC255",
"7X c #94C158",
"8X c #9BC15C",
"9X c #A5C34D",
"0X c #BCC04F",
"qX c #A3C157",
"wX c #ACC155",
"eX c #ADC15B",
"rX c #B7C358",
"tX c #B3C35C",
"yX c #BAC25D",
"uX c #9AC265",
"iX c #AAC467",
"pX c #ADC46C",
"aX c #B4C263",
"sX c #BBC263",
"dX c #B7C965",
"fX c #B4C36B",
"gX c #BDC26C",
"hX c #ADC376",
"jX c #BCC173",
"kX c #B4C379",
"lX c #C4C356",
"zX c #C3C25C",
"xX c #C3C264",
"cX c #C4C764",
"vX c #C3C469",
"bX c #C9C76D",
"nX c #7FA785",
"mX c #ACB886",
"MX c #B7B884",
"NX c #BCABA4",
"BX c #C6AD94",
"VX c #D4B5A2",
"CX c #A9C389",
"ZX c #B6C482",
"AX c #CEC897",
"SX c #D3D3A5",
"DX c #E9C5AD",
/* pixels */
"[ 2.6.1.b.tXyXC.C.$X$XU.<X0XyXM.6.<.6.6.m.6.h.h.V.Z.V.b.C.tXrXwXwXm.4.A.wX0XyX2XU.C.c.6.g.7Xg.5.6.h.h.h.6.2.v.2.c.m.Z.f.r.7.7.9.",
"6.<.F.dXdXI.I.#X*X*X*XI.yXK.sXb.n.m.m.m.m.h.Z.h.h.f.4.4.4.Z.Z.wXm.v.4.f.Z.wXU.yXsXI.Z.Z.h.h.5.6.6.6.h.Z.m.6.6.v.6.m.h.h.j.`.l.'.",
"`.'.iX+X%X&XfX+X=XhX8.t.=.oX*X$X<XJ.L.n.b.b.h.g.6Xh.h.6X6X6.6.h.m.v.h.Z.h.b.b.V.C.b.1.4.h.h.m.v.6.g.6.6.4.m.b.6.Z.h.h.5.5.g.g.h.",
"{.W.O.t.t.:.:.t.8.e.D C 7.j.+X&X*X2XaX*XiXiXpXiXV V -.s.l.g.l.h.h.h.z.k.z.f.h.h.h.Z.Z.h.Z.1.c.v.h.h.6.2.m.h.h.h.h.5.5X5.5X5X6Xg.",
"A e.r. .:.S.k.&.A F ` G W.7.E.O.w.9.w.e.e.D e./ e.W.D e.e.e.e.7.`.'.'.).`.'.7Xg.,.5X6Xm.Z.c.v.v.6.h.6.6.g.7Xg.h.6.5.6.6.5X<.g.i.",
"9.B 9.l.F.f.Z.8XA Z H Z D W.E.(.G ` / ^ / / / ! / / ~ ~ / W.W.W.e.G 7.7.*.-.[ V ,.<.5.6.4.v.6.9Xm.m.6.6.g.g.g.g.6.m.m.6.<.<.,.-.",
"7Xg.5X6Xz.k.z.g.5X<.7XA W.S ~ S F / G G ~ / / W.~ E./ W./ D D D F 9.9.0.3.3.,.7X5.6Xm.m.Z.h.h.3.6.c.m.Z.h.6.h.h.6.6.m.V.f.k.g.f.",
"`.l.5.6.f.z.k.f.2.5X6.l.G Q.e.^.{././.e.G 9.e.e.e.e.7.e.e.C e.{./.8Xz.g.6.5.g.5.g.5Xm.1.b.h.h.g.6.6.k._._.'.z.z.f.h.f.k._.OX[.[.",
"v  Xl.m.b.G.b.aXrXwXf._.q.e.l.g.f.z.f.z.;.g.l.l.-.,.d.l.l.l.j.z.d.8Xf.A.v.c.V.z.z.3.1.wX1.4.h.g.6Xi. XP P U v n ^.uXd.`.b m T P ",
"b b _.f.V.x.xXL.K.rX#XoXt.*.3.qX6.h.6.Z.3.h.h.h.g.g.h.Z.Z.Z.V.V.qX4.V.1.v.v.z._._.XX6.[ Z.g.8Xl.s.S x P T P P P N {.^.l m Y c K ",
"hXz k XXB.sXJ.zXzX3X2XU.D.>.3.d.6.h.6.6.h.h.4.Z.V.b.V.C.I.U.$XyXG.A.V.V.Z.d.}.|.|.{.'.z.'.j.l. Xv x M kX=XOXX.c K J W T l =XjXI.",
"&XfXpXd D.sX<X<X<X,XJ.<XcXI.z.k.h.5.6.6.m.b.b.K.yXI.I.U.U.U.<XI.eX4.Z.z.l.}.l Y Y x N (.].n l m R W -X%XU.vX*XkXc W J K kXaXyX>X",
"yXD.xXsXA.rXK.zX,X,X,X<X<XyXV.V.Z.m.b.n.rXL.L.zXU.<X<XL.zXzXyXtXh.8X7Xs.^.n m v v Y P Y M m c L R L MX;XxXJ.L.I.fXhXO.=X+X*XxX2X",
"yXU.yXU.cXzXK.L.,X2X2X<XI.sXI.aXm.b.M.M.rXrXyXU.<XU.L.rXK.H.n.V.l.z s |.N Y j CXCXx K L c j CXmXY.L k jXU.yX<XlXU.*X@X*XvX@X$X3X",
"$X$X2XP.J.<XxXU.2X$XgXsXrXyXU.K.m.1.Z.1.c.4.m.4.V.c.m.m.V.Z.V.k.Y x N v P L :XoX#XjXX.c } jXjXjXjX%X} vXH.U.J.<X,X3X<X2XP.xXN.<X",
"C.C.C.sXU.U.U.aX..:.#XtXL.U.<X<XtXeXtXm.6.4.qX3.h.h.f.b.f.V.S._.c M mXCXL c jXI.U.U.:X:XgXK.aX#XtXsXI.#XvXU.xXI.*XU.2X2X2X<XL.{ ",
"V.V.V.C.aXaXiX8.w.E.8.oXsXU.U.$X*XtXyXwXm.<.6Xh.f.f.b.b.sX#X| f d .XjX%X%X%X#XtXtXI.I.*X2XsX#XsXI.yXU.U.*X#X0.=.8.t.&X*X$XI.n.m.",
"g.z.k.k.k.0.r.D ~ E.w.oXaXU.yX$X#XC.b.v.m.6.h.f.f.A.yXK.yXgXoXjX%X$X@XU.gXtXm.b.A.K.zX<XU.D.A.V.h.f.fX&X;X8.C G D B t.t.D.I.m.6.",
"7Xi.0.e.e.D e.D W.W.e.l.Z.m.b.c.b.m.6.6.m.4.b.A.tXI.sXyXtXaXoX*XP.*X$XtXwXZ.m.m.c.N.<X<XxXC.V.d.e./ D E.W.( ) ` ` H p.d.h.h.2.[ ",
"i.y.S D W.G W.W.D / G p.u.5Xm.M.c.Z.v.6.6.6.M.tXcXI.b.V.V.G.aXaX$XU.tXA.6.6.6.1.n.n.K.K.yXC.4.-.D _ ( Q.! _ ) Q F ^ ^.l.j.5.5X6X",
"y.G G G Z H i./.G D G G A i.h.Z.Z.Z.6.<.6X9XA.wXK.n.c.c.4.A.aXaXdXV.4.V.h.6.h.h.f.4.S.S.iXk.k.0.e.D W.~ Q.D _ ^ ^ / / e.e.p.a.`.",
"A G G F A s.g.7Xl.`.~.H V u.;.4.V.Z.6.6.6.m.Z.wXZ.b.m.wX1.v.Z.c.V.4.f.f.4.h.f.h.Z.z.XXj.`.e.9.7.9.e.A S e.D W.~ _ / D ~ D D e./ ",
"w.e.W.D e.uXz.h.h.h.l.g.d.l.d.S.d.V.Z.6.<.g.g.l.z.d.Z.1.1.M.9Xm.1.2.qX6.5.h.,.[ &.-.A A H F / e.V '.uXuXe.G C e.q.W.~ W.W.~ E.E.",
"0.).).w.7._.z.h.6.2.5X5X6.z.d.z.'.f.6.h.h.7X/.G G A z.h.c.1.] s 1 1 d B ,.3.4.F.f.d.y.A Z G D e.`.l.s.i.uXV *.'.].).e.e.D D E.q.",
"g.g.z.k.8.:.k.S.h.v.2.2.9XZ.g.k.z.g.h.h.l.s./ _ ^ / 9.d.;.- o o . o X X o g 3.Z.m.b.f.l.a.e.A 9.k.Z.z.h.g.,.3.V.S.S.l.i.y.-.-.9.",
"6.5.h.Z.S.k._.k.h.6.v.v.Z.f.j.a.-.9.s.l.j.~.^ _ ' / e.e.- & # o O X       o f wXrXK.V.Z.z.z.z.f.A.V.v.<.<.4.V.Z.1.h.g.i.7Xi.l.z.",
"5X5.<.6.6.z.z.l.g.h.4.Z.S.j.e.G D A p.p.A F D W.~ ~ D 7 6 ; * & AXp y y     O ] J.J.x.x.n.A.tX$XyXK.A.A.M.Z.n.b.V.Z.g.7X7Xi.l.`.",
"7X7X6X6.h.g.`.`.uXz.f.z.j.r.e.S / ! G F D W.q.W.Q./ j 6 ; 6 1 AX.Xt a a i +   % B.<XzX<XU.U.<XU.sXD.aXG.3.4.z.V.z.l.s.s.H H A G ",
"D A a.s.e.A G A s.l.z.`.e.D / / Q.~ / G G ~.D D / N 7 6 6 8 T.MX.Xr t DXi i @ * ..L.yX<XU.U.<X*XpXr.B A p.}.{.9.e.e.G / ^ G ~ / ",
"/ / W.p.G / / ~ e.7.q.E.~ / / F / / / S Z G ~ ^ D h 7 6 ; T.X.+.o.@.@.1XDXp + * e B.K.U.U.$XyXaX8.7.e.e.Z S e.G G G / / ^ _ _ ( ",
"Q.( D F F ^ _ E.( Y P W U ' ` G / D e.9.9.W._ ) Q 7 5 5 X.+.+.%.@.@.@.1XDXi e @ 0 | I.sXI.V.>.&.&.u.z.`.y.A A G D G / / / _ ( ( ",
"Q.E./ ^ ^ ) ' ' U J E E J U |. X X|. X{.{.(.Y v h 5 5 L u o.:X4X@.@.t @.t e q % 9 | K.U.A.f.g.7Xh.z.l.l.l.uX`.{.G G / / ~ ~ _ ( ",
"( Q.! Q h I h mXR E nXE J U J U U U I |.|.l b b 0 5 5 L R.R..X.X4X$.$.#.e VXNXq > } P.I.V.h.7X7X5.g.l.,.A 9.G G G / / D S Q./ D ",
"Q.~ ' I I I J J J J J W U U T J K U x N N k OXMX!.5 5 % Y.R.+.+.%.%.%.+.BXNXNXq , e H.H.b.1.h.3.5.h.g.l.d.y.9.D G / / / / / G / ",
"/ ( I J I m } kX:XMXmXx U J m hX=XkXkXk f jX%X@X-XY.& 5 * $ !.B.+.+.+.X.X.Y.u * 9 } J.H.x.n.C.v.4.m.Z.Z.z.z.u.0.A e.e./ / ~ _ Q.",
"/ _ I W N hX@X3X2X$XvXkXc M fX#XsX$X#X#X*XgX2X%X%.R.X.8 0 c } } k 3 3 1 < * * ; 2 B.U.L.J.I.I.H.b.4.b.6.h.6Xg.g.l.`.`.G q.~ _ ~ ",
"k M Y x pXG.sX3X,X,XN.0X| :X%XvXJ.>XlX<X<X,XJ.x.%...} } 0 c X.4 3 3 1 1 8 ; ; :  .A.aXyXI.yXtXK.G.F.6.6.6.6.h.h.h.g.k.*.9.8.E.8.",
"ZX-Xc =XtXrXL.J.J.cXN.lXP.*X3XJ.,X>XlX,X<X<XJ...] o.] e } } 0 0 MXMXmXmX: : 1  .>.V.A.tXA.A.A.Z.qXh.h.6.6.6.6.4.Z.h.Z.qXiXiXpXfX",
".XbX*X*XyXrXyXyXrXN.lXN.xX<X3X2XL.0XN.yXyXrXL.] w w 2 < < 0 9 :XMX:XSXSX; 1 s =.>.>.1.Z.m.c.6.4.Z.6.6.Z.Z.6.h.m.4.4.m.eXqXA.Z.wX",
"*X$XU.<XN.yXtXtXZ.M.c.0XL.U.U.U.V.A.dXI.wXrXn.} w w 2 = = = 8 < BXSXSX< < , d | :.4.4.b.4.V.6.Z.6.6.6.6.h.b.b.h.4.Z.Z.wXm.v.1.m.",
"V.n.n.n.U.tXtXZ.4.Z.D.C.U.K.A.4.S.h.V.A.F.Z.4. .1 2 2 = = , - , , 2 2 2 2 ] ....P.U.K.C.b.C.V.b.m.m.m.c.v.m.m.h.F.6.h.Z.6.<.6X6.",
"m.M.n.b.C.tXtXb.4.V.A.V.eXZ.6.h.h.f.h.f.Z.h.6.:.d 2 , = $ = = - 2 2 w w w | B.H.P.I.I.tXaXtXtXG.tXtXtXwXZ.f.4.6.6.6.6.h.6.6X6.6.",
"3.6.6.1.6.Z.Z.4.Z.b.1.v.qXqX6.5.h.6.m.b.b.f.h.3.g d d 1 - - $ $ $ - , 0 f ..B.D.D.I.G.V.f.f.z.z.f.S.S.z.k.g.h.g.h.g.5.5.6.6.6.h.",
"qX6.6.m.9X6.4.Z.4.F.Z.5.h.h.h.6X6.6.m.b.b.V.f.f.] d ] d 2 1 - - - - 1 3 ] | :.>.f.f.z.j.d.u.-.-.w.7.w.j.l.l.g.g.g.5X6X6.Z.Z.b.Z.",
"tXqXZ.Z.1.<.6.6Xg.h.5.g.l.z.g.6.h.6.m.v.b.m.f.f.=. .g g f f d d d d g g |  .=.0.0.u.i.p.y.A A F W.~ e.W.^.p.H V -.d.g.4.b.n.n.L.",
"rXI.I.C.c.m.z.j.`.i.3.h.j.0.*.;.g.h.h.m.v.m.h.h.z.d.>.] &.&. .z g g g g g z =.r.p.0.V Z Z S G H / / / / / F S A A 0.S.V.D.I.J.zX",
"I.xX3X<X0XtXXXr.e.a.l.z.7.C S e.r.j.h.h.2.6.h.h.l.i.,.3.;.&.&.| ] ] B  .=.=.0.u.-.A A 9.G e.D D e.e./ / / ` / Q.G e.OXpXaXvXU.L.",
"sXU.U.U.yXG.t.A 7.e.*.-.;.}.{.G S a.g.6.2.5.z.l.-.A A i.u.3.:. .&.&.&.=.;.0.=.V 7.V 7.r.`.{.{._.`.e.D D W.D G D W.q.r.8.0.G.U.sX",
"oXdX:.:.=.>.&.z.z.-.V -.i.uXg.z.*.0.&.5.9Xg.l.e./ F A V i.l.k.0. .d.u.;.-.B -.-.-.*.0.l.l.z.g.5Xg.i.D W.V l.7Xl.7.^.7.*.-.,. .fX",
"z.k.k._.z.l.z.l.u.8Xg.z.8Xd.z.k.}.).8X3.g.l.e.q.~ / Z V V e.E.O.C 0.`.l.i.s.l.l.z.l.z.z.3.6.6.6.5X7Xw.8.k.6Xg.l.).!. XuXa.'.S.k.",
"z.d.}.).`.`.^.D ~.d.z.3._.].e.D D e.`.`.z.l.q.D S ` H H V Z / W.e.*.*.B -.z.XXz.z.z.f.4.m.A.V.4.5.6XV.V.Z.1.5.z.}.{.(.-X].).f.G.",
"{.l l n p.W._ ( D e.'.0.7.W.D ~.~ / G ^.^.e.e.e.e.^./.7Xy.H D D e.j.'.XXd.f.f.k.k.z._._.k.k.XX'.{.j.k.Z.[ v.Z.S.g z b j M O._.d.",
"Y v m m Y Q.E.( ~ W.! G e.G ` ^ / / G ~.W.C e.w.'.'.z.F.f.g.l.z.j.z.g.h.h.6.F.k.].N v T v N  X(.P I N d.1.A.,XP.gX&Xz b v x l  X",
"c T.CXCXc c E.E.E.W._ _ H F Z A G Z / / / / D e.j.z.4.f.f.Z.Z.f.g.z.g.h.g.g.g._.b M x P Y x l v P P x z G.L.2X3X2X*XOXkXm T I I ",
"c -X+XhX-XO.d dXpX8.W.D 7XuXV -.h.g.l.e.S / ` /.`.l.uXz.S.f.g.h.f.f.g.k.'.).z k k =X:XfXkXz j n ZX-XO.f #X$XU.2XU.P.vX*X=XY J E ",
"fXgXI.aXgX&XxXK.aXoX8.r.s.g.g.6.<.9Xg.s.~.F H A A *.;.=.;.;.k.S.V.f.XXg z O.k kX*XgXU.#XaXXXkX+X#XgX&X&XgX$X@X3X;X3X#X*X3X-XT U ",
"sXA.N.n.I.sXI.$XI.$XxX$Xn.A.f.Z.v.v.h.`.e.D G e.7.9.8.=.8.0.;.=.=.pX| | %X%X*XU.sXI.aXI.fXfXjX@XL.zX*X$XL.K.sX+XE.w.0.oXfX*X=XX.",
"tXA.n.c.n.K.tXsXsXL.J.L.zXA.A.f.m.m.S.).w.E.e.*.0.XXpXhXoXpXiXpXiXpXD.fX*X$XxXU.K.I.iXt.=...%XgXyXU.#XfXgXaXG.r.Y ( C a.iXfX;X;X",
"f.z.h.h.6.Z.Z.Z.V.V.aXtXtX6.<.h.4.f.k.r.w.OXhXfXtXtXaXsX&XaXaXeXdX4.Z.m.1.1.Z.G.fXd.=.*.w.w.e.w.fXoXE.w.A V e.W.Q.|.S V 0.7.w.].",
"9.p.l.j.z.g.g.f.f.k.z.j.g.h.h.6.h.S._.k.k.k.F.c.m.M.C.b.V.V.b.Z.m.1.v.1.2.5X6.6Xz.t.k.iX{.7.D r.:.8.q./ G ` ^ ^ / ! S e.G S W.Q.",
"D / p.A y.l.l.'.9.W.Q.! Z V j.qX5.<.6.F.h.v.v.2.2.2.v.6.h.6.6.6.1.Z.b.3.Z.Z.4.6.m.Z.h.h.3.g.5Xu.u.0.e.w.D ` G ^ / ~ e.~.W.( _ ! ",
"^ / F S A A 0.9.9.n W.D (.7.d.f.9X5.6.m.1.2.2.v.9X5.6.h.h.4.6.c.rXtXI.I.S.4.Z.6.6.6.6.6.5.5X6Xh.6Xl.]. X(./ F G e.r.w.C E.Q.! _ ",
"^ / / W.9.-.V *.8.t.fXiX&X>.V.m.5.<.6.Z.m.6.<.6.3.h.h.Z.b.b.N.<XU.<X2X3XU.C.V.b.v.<.5.6Xh.l.s./.i.A ~ W.W.~.D 0.'._.l.A F ` ! ` ",
"/ ~ Q.^.`.l.{.{.}.oXyXyX<XI.M.c.Z.5X6.<.6.m.qXh.F.g.f.iXsXyX,X,X2X<X2X,X$X*X#XtX2.5X5X5.-.9.e.A H S Q.( ~ G A j.z.d.uX7XZ F ) ^ "
};
