/* XPM */
static char *result[] = {
/* columns rows colors chars-per-pixel */
"64 64 175 2 ",
"   c #161B2D",
".  c #171E30",
"X  c #172232",
"o  c #182434",
"O  c #1A2833",
"+  c #1A2C3B",
"@  c #1B323C",
"#  c #1D3E3F",
"$  c #262634",
"%  c #282633",
"&  c #20293B",
"*  c #322E37",
"=  c #352F38",
"-  c #2E3736",
";  c #233936",
":  c #233F3B",
">  c #3C343B",
",  c #343D37",
"<  c #463A3E",
"1  c #4B3D3F",
"2  c #42373D",
"3  c #2A463A",
"4  c #3F4A3B",
"5  c #35593F",
"6  c #48543E",
"7  c #1E2D41",
"8  c #1C3442",
"9  c #1C3B45",
"0  c #1E3C49",
"q  c #222E40",
"w  c #213346",
"e  c #22364A",
"r  c #23394E",
"t  c #213D46",
"y  c #253E52",
"u  c #4A3C40",
"i  c #1F4944",
"p  c #1E434C",
"a  c #1F4747",
"s  c #1F4A51",
"d  c #21434D",
"f  c #224C4E",
"g  c #2E5540",
"h  c #22574B",
"j  c #235B4D",
"k  c #2C5F4A",
"l  c #355E41",
"z  c #244454",
"x  c #204D54",
"c  c #274559",
"v  c #2A465D",
"b  c #264C5B",
"n  c #2A4A5E",
"m  c #215156",
"M  c #235953",
"N  c #225459",
"B  c #235B5D",
"V  c #26604E",
"C  c #2E624B",
"Z  c #366745",
"A  c #3B794C",
"S  c #256554",
"D  c #296157",
"F  c #266854",
"G  c #296F55",
"H  c #24605E",
"J  c #266A5E",
"K  c #2D7153",
"L  c #2C7D5E",
"P  c #29765A",
"I  c #2A4D60",
"U  c #295362",
"Y  c #245D61",
"T  c #295B65",
"R  c #295F68",
"E  c #275461",
"W  c #256364",
"Q  c #2C6464",
"!  c #266A65",
"~  c #2C6D65",
"^  c #276569",
"/  c #28646A",
"(  c #276C6C",
")  c #286B6C",
"_  c #277164",
"`  c #2A7465",
"'  c #2C7C65",
"]  c #27716F",
"[  c #28746E",
"{  c #2A7C6D",
"}  c #307E6B",
"|  c #277270",
" . c #524142",
".. c #5B4745",
"X. c #5D4946",
"o. c #674E49",
"O. c #614B47",
"+. c #6E534B",
"@. c #74594A",
"#. c #7A5C4D",
"$. c #73574A",
"%. c #7D5E50",
"&. c #586643",
"*. c #487146",
"=. c #6E7E4A",
"-. c #805F50",
";. c #85644C",
":. c #886551",
">. c #866353",
",. c #936C53",
"<. c #35885B",
"1. c #3D955D",
"2. c #2D8464",
"3. c #2D8B65",
"4. c #2B846C",
"5. c #2D8C6B",
"6. c #348263",
"7. c #3A8F67",
"8. c #338B69",
"9. c #32806A",
"0. c #2F956A",
"q. c #2F986B",
"w. c #339067",
"e. c #3B9466",
"r. c #379C67",
"t. c #3A9E66",
"y. c #319469",
"u. c #339968",
"i. c #3DA165",
"p. c #498F4E",
"a. c #53814A",
"s. c #4C954F",
"d. c #5E924F",
"f. c #438F59",
"g. c #428A56",
"h. c #4F9E52",
"j. c #499552",
"k. c #70814B",
"l. c #6C9550",
"z. c #45A15E",
"x. c #4DA75D",
"c. c #4DAC5E",
"v. c #51AE5C",
"b. c #56AD56",
"n. c #54B25B",
"m. c #5AB659",
"M. c #5DB859",
"N. c #63B95A",
"B. c #6ABB5B",
"V. c #73BE5C",
"C. c #439F62",
"Z. c #489E61",
"A. c #439663",
"S. c #43A562",
"D. c #4AA261",
"F. c #47A861",
"G. c #49A960",
"H. c #7DC25D",
"J. c #92A755",
"K. c #8AB95B",
"L. c #94B259",
"P. c #8EC75E",
"I. c #8CC85E",
"U. c #9BC85F",
"Y. c #98C55E",
"T. c #ACC45E",
"R. c #9FCD60",
"E. c #A0CE60",
"W. c #A7D061",
"Q. c #AAD161",
"!. c #B6D763",
"~. c #BDD763",
"^. c #BFD964",
"/. c #C0D964",
"(. c None",
/* pixels */
"(.(.(.(.(.(.(.(.(.(.(.(.(.(.(.(.(.(.(.(.(.(.(.(.(.(.(.(.(.(.(.(.(.(.(.(.(.(.(.(.(.(.(.(.(.(.(.(.(.(.(.(.(.(.(.(.(.(.(.(.(.(.(.(.",
"(.(.(.(.(.(.(.(.(.(.(.(.(.(.(.(.(.(.(.(.(.(.(.(.(.(.(.(.(.(.(.(.(.(.(.(.(.(.(.(.(.(.(.(.(.(.(.(.(.(.(.(.(.(.(.(.(.(.(.(.(.(.(.(.",
"(.(.(.(.(.(.(.(.(.(.(.(.(.(.(.(.(.(.(.(.(.(.(.(.(.(.(.(.(.(.  (.(.(.(.(.(.(.(.(.(.(.(.(.(.(.(.(.(.(.(.(.(.(.(.(.(.(.(.(.(.(.(.(.",
"(.(.(.(.(.(.(.(.(.(.(.(.(.(.(.(.(.(.(.(.(.(.(.(.(.(.(.(.(.(., (.(.(.(.(.(.(.(.(.(.(.(.(.(.(.(.(.(.(.(.(.(.(.(.(.(.(.(.(.(.(.(.(.",
"(.(.(.(.(.(.(.(.(.(.(.(.(.(.(.(.(.(.(.(.(.(.(.(.(.(.(.(.(., J.6 (.(.(.(.(.(.(.(.(.(.(.(.(.(.(.(.(.(.(.(.(.(.(.(.(.(.(.(.(.(.(.(.",
"(.(.(.(.(.(.(.(.(.(.(.(.(.(.(.(.(.(.(.(.(.(.(.(.(.(.(.(.(.=./.k.(.(.(.(.(.(.(.(.(.(.(.(.(.(.(.(.(.(.(.(.(.(.(.(.(.(.(.(.(.(.(.(.",
"(.(.(.(.(.(.(.(.(.(.(.(.(.(.(.(.(.(.(.(.(.(.(.(.(.(.(.(.6 T.~.L.3 (.(.(.(.(.(.(.(.(.(.(.(.(.(.(.(.(.(.(.(.(.(.(.(.(.(.(.(.(.(.(.",
"(.(.(.(.(.(.(.(.(.(.(.(.(.(.(.(.(.(.(.(.(.(.(.(.(.(.(.(.&.!.~.!.a.(.(.(.(.(.(.(.(.(.(.(.(.(.(.(.(.(.(.(.(.(.(.(.(.(.(.(.(.(.(.(.",
"(.(.(.(.(.(.(.(.(.(.(.(.(.(.(.(.(.(.(.(.(.(.(.(.(.(.(.3 L./././.K.; (.(.(.(.(.(.(.(.(.(.(.(.(.(.(.(.(.(.(.(.(.(.(.(.(.(.(.(.(.(.",
"(.(.(.(.(.(.(.(.(.(.(.(.(.(.(.(.(.(.(.(.(.(.(.(.(.(.(.d.!.Q.~.E.!.*.  (.(.(.(.(.(.(.(.(.(.(.(.(.(.(.(.(.(.(.(.(.(.(.(.(.(.(.(.(.",
"(.(.(.(.(.(.(.(.(.(.(.(.(.(.(.(.(.(.(.(.(.(.(.(.(.(.l R.Q.R.E.B.U.K.: (.(.(.(.(.(.(.(.(.(.(.(.(.(.(.(.(.(.(.(.(.(.(.(.(.(.(.(.(.",
"(.(.(.(.(.(.(.(.(.(.(.(.(.(.(.(.(.(.(.(.(.(.(.(.(.O l.E.B.R.I.B.N.I.g.@ (.(.(.(.(.(.(.(.(.(.(.(.(.(.(.(.(.(.(.(.(.(.(.(.(.(.(.(.",
"(.(.(.(.(.(.(.(.(.(.(.(.(.(.(.(.(.(.(.(.(.(.(.(.(.l V.V.N.B.P.V.c.m.n.K o (.(.(.(.(.(.(.(.(.(.(.(.(.(.(.(.(.(.(.(.(.(.(.(.(.(.(.",
"(.(.(.(.(.(.(.(.(.(.(.(.(.(.(.(.(.(.(.(.(.(.(.(.; h.m.m.m.B.V.B.S.c.m.c.V (.(.(.(.(.(.(.(.(.(.(.(.(.(.(.(.(.(.(.(.(.(.(.(.(.(.(.",
"(.(.(.(.(.(.(.(.(.(.(.(.(.(.(.(.(.(.(.(.(.(.(.O A m.m.G.v.M.H.B.n.<.A c.i.h (.(.(.(.(.(.(.(.(.(.(.(.(.(.(.(.(.(.(.(.(.(.(.(.(.(.",
"(.(.(.(.(.(.(.(.(.(.(.(.(.(.(.(.(.(.(.(.(.(.@ G v.n.1.z.m.M.N.m.m.c.K j <.y.F i (.(.(.(.(.(.(.(.(.(.(.(.(.(.(.(.(.(.(.(.(.(.(.(.",
"(.(.(.(.(.(.(.(.(.(.(.(.(.(.(.(.(.(.(.(.i j 2.z.z.K C b.m.G.n.n.v.m.G.D @ h P h X (.(.(.(.(.(.(.(.(.(.(.(.(.(.(.(.(.(.(.(.(.(.(.",
"(.(.(.(.(.(.(.(.(.(.(.(.(.(.(.(.(.(.(.O 9 F <.K @ @ f.b.e.e.S.G.u.i.v.w.B O X (.(.(.(.(.(.(.(.(.(.(.(.(.(.(.(.(.(.(.(.(.(.(.(.(.",
"(.(.(.(.(.(.(.(.(.(.(.(.(.(.(.(.(.(.(.(.(.(.X X 8 6.D.{ { G.F.t.q.q.i.t.4.p (.(.(.(.(.(.(.(.(.(.(.(.(.(.(.(.(.(.(.(.(.(.(.(.(.(.",
"(.(.(.(.(.(.(.(.(.(.(.(.(.(.(.(.(.(.(.(.(.(.  8 { t.5.4.4.t.c.r.0.q.0.0.0.! @ (.(.(.(.(.(.(.(.(.(.(.(.(.(.(.(.(.(.(.(.(.(.(.(.(.",
"(.(.(.(.(.(.(.(.(.(.(.(.(.(.(.(.(.(.(.(.(.(.9 ! 5.u.u.5.0.0.t.r.q.0.0.0.q.5.m   (.(.(.(.(.(.(.(.(.(.(.(.(.(.(.(.(.(.(.(.(.(.(.(.",
"(.(.(.(.(.(.(.(.(.(.(.(.(.(.(.(.(.(.(.(.(.8 ! 5.t.c.u.u.0.u.u.0.q.4.4.0.u.u.{ @ X (.(.(.(.(.(.(.(.(.(.(.(.(.(.(.(.(.(.(.(.(.(.(.",
"(.(.(.(.(.(.(.(.(.(.(.(.(.(.(.(.(.(.(.+ a [ 0.S.n.S.0.u.u.F.S.0.r.D.4.5.c.i.q.` 0 s + (.(.(.(.(.(.(.(.(.(.(.(.(.(.(.(.(.(.(.(.(.",
"(.(.(.(.(.(.(.(.(.(.(.(.(.(.(.(.(.+ p W { 7.G.n.S.1.0.i.i.c.m.S.v.n.h.} c.v.u.i.F p Y x O (.(.(.(.(.(.(.(.(.(.(.(.(.(.(.(.(.(.(.",
"(.(.(.(.(.(.(.(.(.(.(.(.(.(.(.  + s ( Y D c.M.j.C L u.v.n.n.m.m.m.m.m.Z.y.n.G.G.r.h @ o (.(.(.(.(.(.(.(.(.(.(.(.(.(.(.(.(.(.(.(.",
"(.(.(.(.(.(.(.(.(.(.(.(.(.(.(.(.  o @ g p.s.Z M _ 0.i.m.m.n.m.n.S.D.m.m.t.t.c.t.u.4.p (.(.(.(.(.(.(.(.(.(.(.(.(.(.(.(.(.(.(.(.(.",
"(.(.(.(.(.(.(.(.(.(.(.(.(.(.(.(.(.(.X 3 3 @ N { 0.r.n.m.F.u.G.m.S.} A.M.n.t.u.u.0.0.! 9 (.(.(.(.(.(.(.(.(.(.(.(.(.(.(.(.(.(.(.(.",
"(.(.(.(.(.(.(.(.(.(.(.(.(.(.(.(.(.(.(.  p ! 5.u.i.v.x.w.y.u.u.F.n.y.{ e.c.G.u.8.3.0.0._ p (.(.(.(.(.(.(.(.(.(.(.(.(.(.(.(.(.(.(.",
"(.(.(.(.(.(.(.(.(.(.(.(.(.(.(.(.(.(.o m 4.0.0.i.F.t.5.e.v.n.t.0.c.c.y.5.u.u.u.2.V ' 4.5.[ B s (.(.(.(.(.(.(.(.(.(.(.(.(.(.(.(.(.",
"(.(.(.(.(.(.(.(.(.(.(.(.(.(.(.(.(.@ Y 4.0.5.0.q.5.y.F.m.m.m.i.0.u.t.S.q.0.5.5.q.2.i 9 B ! B m o (.(.(.(.(.(.(.(.(.(.(.(.(.(.(.(.",
"(.(.(.(.(.(.(.(.(.(.(.(.(.(.(.+ s ! { { ( 4.0.5.{ D.m.m.m.F.r.i.0.0.u.0.0.0._ _ 5.! + X + X (.(.(.(.(.(.(.(.(.(.(.(.(.(.(.(.(.(.",
"(.(.(.(.(.(.(.(.(.(.(.(.(.o x W ( ! Y s J 4.[ { Z.m.m.m.v.u.S.S.0.0.0.5.4.5.3.h a B J h @ (.(.(.(.(.(.(.(.(.(.(.(.(.(.(.(.(.(.(.",
"(.(.(.(.(.(.(.(.(.(.(.(.(.(.+ @ + + 8 B { { } v.m.v.S.c.r.u.S.u.0.q.0.4.[ ] 5.0.2.M d M i   (.(.(.(.(.(.(.(.(.(.(.(.(.(.(.(.(.(.",
"(.(.(.(.(.(.(.(.(.(.(.(.(.(.(.(.  0 ] 5.5.7.v.c.c.F.u.u.q.u.q.0.q.0.0.5.{ { [ 0.q.2.n r . (.(.(.(.(.(.(.(.(.(.(.(.(.(.(.(.(.(.(.",
"(.(.(.(.(.(.(.(.(.(.(.(.(.(.(.+ p ! 4.0.u.C.t.r.S.i.u.0.0.q.0.q.t.r.0.0.0.5.4.4.0.0.~ n r + (.(.(.(.(.(.(.(.(.(.(.(.(.(.(.(.(.(.",
"(.(.(.(.(.(.(.(.(.(.(.. @ p x W { 5.0.0.5.0.0.0.5.5.q.0.0.0.5.5.r.i.0.0.t.t.0.0.u.5.L _ ( ! p o (.(.(.(.(.(.(.(.(.(.(.(.(.(.(.(.",
"(.(.(.(.(.(.(.(.(.(.(.  o p B B [ [ { [ 5.0.0.5.{ 5.0.q.q.0.{ { 5.c.i.t.t.G.i.q.q.0.S M ! | ] Y p (.(.(.(.(.(.(.(.(.(.(.(.(.(.(.",
"(.(.(.(.(.(.(.(.(.(.(.(.(.    . 0 B [ 0.r.F.u.5.0.0.0.r.r.y.4.| 5.c.m.m.v.c.n.t.0.2.5.M 8 9 m Y p X (.(.(.(.(.(.(.(.(.(.(.(.(.(.",
"(.(.(.(.(.(.(.(.(.(.(.(.(.(.7 r E { q.i.G.t.q.0.r.i.i.c.y.y.5.{ 0.t.m.c.n.m.m.c.0.F F 4.] s 0 o (.(.(.(.(.(.(.(.(.(.(.(.(.(.(.(.",
"(.(.(.(.(.(.(.(.(.(.(.+ 7 y I Q 2.0.r.t.0.0.0.i.n.S.c.S.0.0.0.4.5.u.c.i.i.S.c.m.i.5.m f h s p o (.(.(.(.(.(.(.(.(.(.(.(.(.(.(.(.",
"(.(.(.(.(.(.(.(.(.+ m / ^ [ 4.0.5.{ _ ( { u.i.m.x.u.F.u.` 2.y.0.0.0.r.S.5.0.t.n.S.0.^ v e . (.(.(.(.(.(.(.(.(.(.(.(.(.(.(.(.(.(.",
"(.(.(.(.(.(.(.(.(.(.8 s W ! ! B x s z T 8.z.n.F.u.u.0.0.T ~ u.u.0.u.q.0.4.| 5.t.u.0.{ n v 7 (.(.(.(.(.(.(.(.(.(.(.(.(.(.(.(.(.(.",
"(.(.(.(.(.(.(.(.(.(.(.. + o + 7 y v n 6.S.F.r.0.` { 0.~ T | y.S.u.2.2.q.5.[ | 4.0.0.u.~ I r . (.(.(.(.(.(.(.(.(.(.(.(.(.(.(.(.(.",
"(.(.(.(.(.(.(.(.. + q y w 7 e v n T 6.t.C.7.~ B ~ 0.4.( ( | 4.F.t.~ U ' 0.4.| | | { 4.{ U I y o (.(.(.(.(.(.(.(.(.(.(.(.(.(.(.(.",
"(.(.(.(.(.(.(.(.o w e 7 w v n Q ~ Q Q I U U B ' 5.4.4.4.| | { y.r.4./ T ~ 4.[ ( ( ] ^ ] ) I I v s + X (.(.(.(.(.(.(.(.(.(.(.(.(.",
"(.(.(.(.(.(.(.(.(.. 8 c U / Q n I v I I v v T ) { 5.5.| | | 5.4.0.0.4.| | | | ) T ( Y z R / T I / W B s p o (.(.(.(.(.(.(.(.(.(.",
"(.(.(.(.(.(.(.8 p B ) ( | | / n v v I I T / ) [ 4.4.| ) ( | { 4.[ 4.5.] | ( | | / / ( x 8 z ! ! / Y x s 8 (.(.(.(.(.(.(.(.(.(.(.",
"(.(.(.(.(.(.(.+ s R ! / T T n r e I R ) ) [ [ [ ( | ] T ( | | [ { | [ | | ) / ] | ) | 4.B + + 8 @ o   (.(.(.(.(.(.(.(.(.(.(.(.(.",
"(.(.(.(.(.(.(.(.(.o + 7 + + o 8 b v n U U T / R U | R T ) | | | | ) | | | | U Y | 4.4.5.5._ s @ o X (.(.(.(.(.(.(.(.(.(.(.(.(.(.",
"(.(.(.(.(.(.(.(.(.(.(.(.(.o p T R R I v v I y I R ) U ) U ^ | / T R / | | | ^ p Y [ 4.q.0.5.5.{ ! 9 . (.(.(.(.(.(.(.(.(.(.(.(.(.",
"(.(.(.(.(.(.(.(.(.(.o s m W ( / E I I Y Y c 7 I ( | ( T n / ( U I I I ( ) | | ! s m ( [ { [ ! B p (.(.(.(.(.(.(.(.(.(.(.(.(.(.(.",
"(.(.(.(.(.(.(.(.(.(.(.8 s Y ( ( ^ / / N 8 . 8 I T T I r n ) T r y I y z U R | | ^ 0 8 p 0 9 + o (.(.(.(.(.(.(.(.(.(.(.(.(.(.(.(.",
"(.(.(.(.(.(.(.(.(.(.(.(.(.o + + + + @     8 n v I v r 7 v U c & c / I 7 e c U / ^ / Y N a 0 . (.(.(.(.(.(.(.(.(.(.(.(.(.(.(.(.(.",
"(.(.(.(.(.(.(.(.(.(.(.(.(.(.(.(.(.  + 8 p W ) / I w . s T v & > w R ) I e 8 8 7 0 U ^ Y B + (.(.(.(.(.(.(.(.(.(.(.(.(.(.(.(.(.(.",
"(.(.(.(.(.(.(.(.(.(.(.(.(.(.(.(.(.(.8 c T ^ W N 7 7 s | ^ 8 o u > 0 ( | ) ) W 8 . + 7 o X (.(.(.(.(.(.(.(.(.(.(.(.(.(.(.(.(.(.(.",
"(.(.(.(.(.(.(.(.(.(.(.(.(.(.(.(.(.(.(.. 8 8 + X   . z s 0 < u O.o.= + 0 s s @ (.(.(.(.(.(.(.(.(.(.(.(.(.(.(.(.(.(.(.(.(.(.(.(.(.",
"(.(.(.(.(.(.(.(.(.(.(.(.(.(.(.(.(.(.(.(.(.(.(.(.$ $ X.= u ,.#.:.@.u %       (.(.(.(.(.(.(.(.(.(.(.(.(.(.(.(.(.(.(.(.(.(.(.(.(.(.",
"(.(.(.(.(.(.(.(.(.(.(.(.(.(.(.(.(.(.(.(.(.(.(.* < < ,.u O.;...@.;.2 X.u (.(.(.(.(.(.(.(.(.(.(.(.(.(.(.(.(.(.(.(.(.(.(.(.(.(.(.(.",
"(.(.(.(.(.(.(.(.(.(.(.(.(.(.(.(.(.(.(.(.(.(.(.(.< $.@.= X.u +.< #.u > u (.(.(.(.(.(.(.(.(.(.(.(.(.(.(.(.(.(.(.(.(.(.(.(.(.(.(.(.",
"(.(.(.(.(.(.(.(.(.(.(.(.(.(.(.(.(.(.(.(.(.(.(.(.(.#.> X.> = >.O. .(.(.(.(.(.(.(.(.(.(.(.(.(.(.(.(.(.(.(.(.(.(.(.(.(.(.(.(.(.(.(.",
"(.(.(.(.(.(.(.(.(.(.(.(.(.(.(.(.(.(.(.(.(.(.(.(.(.(.(.(.(.(.(.(.(.(.(.(.(.(.(.(.(.(.(.(.(.(.(.(.(.(.(.(.(.(.(.(.(.(.(.(.(.(.(.(.",
"(.(.(.(.(.(.(.(.(.(.(.(.(.(.(.(.(.(.(.(.(.(.(.(.(.(.(.(.(.(.(.(.(.(.(.(.(.(.(.(.(.(.(.(.(.(.(.(.(.(.(.(.(.(.(.(.(.(.(.(.(.(.(.(.",
"(.(.(.(.(.(.(.(.(.(.(.(.(.(.(.(.(.(.(.(.(.(.(.(.(.(.(.(.(.(.(.(.(.(.(.(.(.(.(.(.(.(.(.(.(.(.(.(.(.(.(.(.(.(.(.(.(.(.(.(.(.(.(.(.",
"(.(.(.(.(.(.(.(.(.(.(.(.(.(.(.(.(.(.(.(.(.(.(.(.(.(.(.(.(.(.(.(.(.(.(.(.(.(.(.(.(.(.(.(.(.(.(.(.(.(.(.(.(.(.(.(.(.(.(.(.(.(.(.(."
};
