/* XPM */
static char *result[] = {
/* columns rows colors chars-per-pixel */
"64 64 254 2 ",
"   c #0D1211",
".  c #142B1A",
"X  c #0C292E",
"o  c #1A2D36",
"O  c #093838",
"+  c #1A3638",
"@  c #2F2E2F",
"#  c #263938",
"$  c #493636",
"%  c #1F5E2D",
"&  c #0E4337",
"*  c #37502F",
"=  c #274538",
"-  c #4B5336",
";  c #536D39",
":  c #5A773A",
">  c #667735",
",  c #697331",
"<  c #0F3946",
"1  c #173A46",
"2  c #273B46",
"3  c #243F50",
"4  c #473B42",
"5  c #0C4E44",
"6  c #184949",
"7  c #13574B",
"8  c #1B4755",
"9  c #1A5756",
"0  c #284748",
"q  c #2A564B",
"w  c #36574D",
"e  c #274958",
"r  c #344A53",
"t  c #27565A",
"y  c #35565A",
"u  c #186A4D",
"i  c #1A6459",
"p  c #26665A",
"a  c #336E50",
"s  c #376955",
"d  c #24785A",
"f  c #1E5B61",
"g  c #2B4F62",
"h  c #2B5863",
"j  c #365C66",
"k  c #1D7162",
"l  c #286867",
"z  c #366568",
"x  c #267667",
"c  c #2A726B",
"v  c #367868",
"b  c #296A73",
"n  c #366B73",
"m  c #2A7773",
"M  c #377777",
"N  c #4E4E48",
"B  c #6D5451",
"V  c #4B6848",
"C  c #587546",
"Z  c #506950",
"A  c #557857",
"S  c #667C47",
"D  c #707853",
"F  c #645D64",
"G  c #456C69",
"H  c #4D6F6F",
"J  c #467768",
"K  c #847C5E",
"L  c #846F71",
"P  c #298A3B",
"I  c #6C833A",
"U  c #778939",
"Y  c #77943C",
"T  c #7BA73E",
"R  c #328B4D",
"E  c #288759",
"W  c #2B925C",
"Q  c #379759",
"!  c #3DA25C",
"~  c #1E8460",
"^  c #2A8768",
"/  c #358968",
"(  c #338C6C",
")  c #2C9465",
"_  c #2D966A",
"`  c #339464",
"'  c #379A66",
"]  c #34936A",
"[  c #3B956B",
"{  c #3B9B6B",
"}  c #2C8873",
"|  c #338575",
" . c #378976",
".. c #399575",
"X. c #3CA267",
"o. c #3DA477",
"O. c #588451",
"+. c #429C5A",
"@. c #678848",
"#. c #778A47",
"$. c #6D954C",
"%. c #78974A",
"&. c #688A58",
"*. c #768A56",
"=. c #6C9557",
"-. c #779856",
";. c #739C5B",
":. c #47A65A",
">. c #53B05A",
",. c #7CA34D",
"<. c #7DA94A",
"1. c #6FA657",
"2. c #75A656",
"3. c #7BA455",
"4. c #7DAA54",
"5. c #75A45C",
"6. c #7BA55C",
"7. c #7CAA5C",
"8. c #67B65A",
"9. c #79B557",
"0. c #528C6D",
"q. c #429A68",
"w. c #439A74",
"e. c #688B65",
"r. c #748C66",
"t. c #679265",
"y. c #779966",
"u. c #668B72",
"i. c #729274",
"p. c #47A667",
"a. c #56AE69",
"s. c #4CB168",
"d. c #56B568",
"f. c #48A575",
"g. c #56A874",
"h. c #4CB274",
"j. c #57B674",
"k. c #66A963",
"l. c #7BA563",
"z. c #76AA63",
"x. c #7BAA62",
"c. c #79A768",
"v. c #70AF6D",
"b. c #74C264",
"n. c #84963D",
"m. c #899139",
"M. c #94AA3E",
"N. c #94AD3E",
"B. c #A9B23D",
"V. c #8B8B49",
"C. c #869947",
"Z. c #989B48",
"A. c #849955",
"S. c #A19E4B",
"D. c #8BA343",
"F. c #8DAA44",
"G. c #86A44A",
"H. c #84AC4C",
"J. c #8CAC4B",
"K. c #97A746",
"L. c #94AC44",
"P. c #92A44C",
"I. c #93AC4C",
"U. c #9CAD4C",
"Y. c #8CB444",
"T. c #8DB34C",
"R. c #95B346",
"E. c #9BB445",
"W. c #9ABA45",
"Q. c #95B44B",
"!. c #9BB44C",
"~. c #94B94C",
"^. c #9BBA4C",
"/. c #83A554",
"(. c #8CA553",
"). c #85AB54",
"_. c #8BAB55",
"`. c #84A55A",
"'. c #89A45B",
"]. c #83AA5C",
"[. c #8CAC5A",
"{. c #97A957",
"}. c #93AC54",
"|. c #8DB454",
" X c #8CB35C",
".X c #8AB859",
"XX c #94B454",
"oX c #9CB553",
"OX c #95BA53",
"+X c #9CBA52",
"@X c #94B45B",
"#X c #9AB55B",
"$X c #94BA5B",
"%X c #9BBA5B",
"&X c #A4AD4A",
"*X c #A7B549",
"=X c #A2B44C",
"-X c #A3B94D",
";X c #A8AC56",
":X c #A4B553",
">X c #ACB453",
",X c #A3BA53",
"<X c #ABBC55",
"1X c #A8B65B",
"2X c #ACBC5A",
"3X c #B3B051",
"4X c #B3B454",
"5X c #B4BB55",
"6X c #BABA56",
"7X c #B4B45B",
"8X c #BAB559",
"9X c #B4BB5B",
"0X c #BBBC5B",
"qX c #8B9B65",
"wX c #82AB63",
"eX c #86A867",
"rX c #91AE6D",
"tX c #8DB766",
"yX c #94B463",
"uX c #92BB63",
"iX c #98B867",
"pX c #95B972",
"aX c #A6AC67",
"sX c #ABB563",
"dX c #A9BA67",
"fX c #B7B766",
"gX c #B4BC64",
"hX c #BBBC63",
"jX c #B3BC6C",
"kX c #AAB774",
"lX c #B7BB74",
"zX c #C1BB4D",
"xX c #C4B85B",
"cX c #C2BB5C",
"vX c #C3BC63",
"bX c #95C356",
"nX c #A5C14C",
"mX c #ABC158",
"MX c #B3C35B",
"NX c #BBC25C",
"BX c #95C96E",
"VX c #ABC468",
"CX c #BCC263",
"ZX c #B7C368",
"AX c #ADC178",
"SX c #B6D87B",
"DX c #C3C25C",
"FX c #C4C365",
"GX c #3F8582",
"HX c #4B8E82",
"JX c #5FAD82",
"KX c #A8BB86",
"LX c #ACC685",
"PX c #C0D58E",
/* pixels */
"B.W.W.W.-XMXNX>X3XhXvXcXDX6XNX-X=XW.^.W.+X,X+X+X:X:X:X=X:X2X<X<XmX-X=X,XmXNXDXcX6X>X!.W.OXOXOX~.W.!.+X+X^.*XB.W.-X-X,XoX[.`.H.).",
"~.~.mXZXZXsX9XMXhXjXjX9XNX9XNX*X-X-X-X-X^.^.+X+X+X+XoXE.E.!.I.:X*X-X!.oX-XmX5X0XCX9X-X,X%X+X~.W.!.~.oXoX^.E.W.W.^.^.+X+X@XuXXXuX",
"bXiXdXVXjXjXZXVXAXAX_.}.G.dXgXCXcX6X5X4X-X=X+XOXbXbXOX+X+XQ.I R.W.=XoXoX+X!.=X*X:X*X!.!.+X!.=XE.Q.OXQ.E.!.!.!.!.,X+X~.~.~.R.XXXX",
"pXwXA.'.S.{.(.(.'.'.3.3./.@XjXlXhXhXhXgXZXVXVXVXG.<.H.|.XXT.#.G.Q.Q.XXXXoXXXoX+X+X=X+X!.^.!.E.E.oXOXW.W.oX!.oX+X^.~.~.~.W.bXOXOX",
"4.[.[.A.P.,X,XG.4.7.v.5.].`.'.'./.].].].].].].7.wX7.].7.].-.rX@.].@XyXyXyX@XXXOXY.~.+X+X!.*XE.E.!.oXQ.~.OXXX~.XXR.!.R.W.W.~.~..X",
").,.H.$X1X+X+X%X<.4.9.9.6.wXeXeXx.x.wXx.c.z.l.z.z.x.l.l.;.-.PX#.* -.3.%.,.H.<.T <.F.Q.W.!.!.!.E.!.Q.E.!.OXXXOXXX^.^.!.!.R.Y.Y.H.",
"$XbX+X,XOX#X%X%XbXY.bX<.wXz.l.5.2.7.x.2.6.x.wXwXwXl.wX6.@.KXFX%X* T ,.G.G.T.Y.T.~.Q.!.!.!.!.XXR.E.E.!.!.Q.Q.oX+X^.^.!.:XoXoX#XoX",
"bX X~.bX+X#X%X+XW.nXnX$X7.wX].tXBXuXtX].].4.].7.]./.3.-.> LXSXLXS ; [.I.R.Q.J.T.T.E.R.E.!.+XOXOXR.!.{.yXyX@X@XXXOXoXoX#XiXkXiXiX",
"=.pXXX-X=X<X:XMXMXMX+X#X`.].$XOX+X#XoXoXJ.$X%X$XH.H.|.I .XSXSXSXrX* %.E.E.M.P.P.}.L.N.nXE.E.OX~.~.|.pX&.t.t.&.=.yXBXXXuX%.&.y.r.",
"*.%.iX+X,X*XFX6X5XMXgXsX{.G.OXnX^.+X+X+XQ.Q.XX+X~.XX|.*.SXSXSXbXLX; C.M.E.K.}.'.[.iXR.L.oXoX$X@X X2.&.t.r.t.&.r.;.tXtX@.;.r.&.y.",
"LX%.#.VX;XCX6XxXDXvXvX0X9XK.|.XX+X^.^.+X+X^.!.,X:X!.%.AXBXBXBX9.BXpXD.D.I.J.rXrXeXtX@X%XuX@X@XrX=.&.;.kXlXkXA.*.r.e.i.y.$.kXZXhX",
"jXZXdXU 1XCXcXxXxXzX8XxXFX2X1X%X^.~.!.W.-X=X=X<X0X>Xk.BXbXBXbX9.k.b.O.= : tX$.=.y.&.=.rXrX%.$.&.u.i.kXjX7XvXfXlX*.i.e.r.AXZX0XzX",
"NX4XCXCX<XMX5XDXxXxXxXcXNX9X:X:X,X-X=X*X5XMX6X6X6X>Xv.b.8.8.bXb.>.v.i.a . ; =.&.&.e.r.*.;.*.*.r.u.i.KXfXhX8X4X6XZXAXV.kXjXhXvXvX",
"NX0XNX0XFXDX5X6XxXxXvXcX9XCX9XCX*X!.=X*XMX5XNX6XC.;.k.8.8.b.b.8.:.>.g.JXq   - LXKX@.r.r.*.@.KXKXqXD K lX0X6X6XDX9XhXsXlXZXhXfXvX",
"hXhXhX8X0XcXDX0XvXhXFXCX6XNX6X5X=XE.-XE.*XE.*XI ; k.d.>.>.8.b.b.>.P R g.0.q . sXsXZX*.D #.ZXlXlXlXdX, FX>X4X4X0X8XvX8XvX8XFX4XDX",
">X>X;XCX0X0X0XhXP.P.dXMX5X6X0X0XmXmXmX!.R., = a >.k.+.:.>.d.d.>.>.s.R % J 0.j ;X;X7XlXlXjX4X7X1X>X7X;X4XhX7XFX7XhX8XhXvXxXDX6XB.",
",X:X:X:XZXmXdX(.'.'.A.gXCX6X0XhXgX2X2X<XL.s M 0.:.% P a.d.:.d.>.s.j.g.u & q z 2X;X;X;X;X1X7X1X;X:X5X>X4X7XsXP.G.G.(.gXjXhX9X*X*X",
"OXOX#X#X#X(. X3.l.wX'.dXZXMX9X9XgX:X=XE.Q.V J v & . R k.+.+.p.p.Q p.w.0.% X O K.U.>X7X;X;X>X;XoXI.{.sXaXjXA.3.7.4.-._.{.7X9X=XW.",
"bX|.).].wX3.6.6.x.wX].$X^.-X=X&X*X=XR.L.R.> @ . & v f.E d p.q.q.Q W f...M 6 . =X&X&X3X3X8X>XU.J.3.l.-.eXwXl.z.z.z.9.[.{.,XW.R.W.",
".X).2.6.x.7.].wX6.x.3.|.T.+X!.*XE.=XE.Q.W.!.L.T 0. ...~ E q.g.q.' W ) { ] a > F.&X&X>X&X9X;XI.G.5.c.l.c.t.c.v.z.k.7.tX$XXX~.~.bX",
").3.7.7.4.9..XuX4.7.5.7.4.|.oX^.=X!.Q.T.^.+X%.s ^ ..) _ ) ^ f.' W p.) ) w.5.).C.D.U.:X{.dX}.@X_.`.3.wX6.l.5.c.z.c.z.z.].].]. XuX",
"7.7.2.2.4..XOX$X$XtXwX9.<.).J.U.!.oX!.R.Q.^.a  .o.JX{ W ` ' Q ! ` E W ^ [ [ a @.C._.@X X XG.3.%.3.3.4.3.6.6.l.l.x.x.6.6.x.6.7.7.",
"].`.wX6.].iXOXOX%X+XOX|.|.OXXX%X}.I.^.Q.Y.3.q.q.JX_ _ X.X.:.s.Q q.f.E R g.f...a & # = ; 1.2.6.3.,.uXuXuX].7.3.`.].wXl.wXwXl.wXeX",
"_. XyX`.G.iXXX+XW.R.W.^.Q.%XI._.A.@.@.V v / f.j.X.X.] Q ! s.>.! a.p.p.R p.g.` f.p 5 y w =.5.5.6.yXXX X.X$X<.H.iXiXyX`.6.3.6.wXA.",
"OXXX#XXX(.(.{.#X!.E.N.N.!.!.A.- V Z F p a g.g.Q u R R s.d.>.>.s.d.j.j.:.R a.f.f...7 6 X -.%.,.,.}.oX+X+X~.T.I.+XoX1X$X.XH.H.H.G.",
"^.~.^.oXoX#XiXoXoXU.N.-XE.J.%.%.@.: # q J q.a u a R +.d.d.s.d.>.:.p.d.d.:.+.p.' _ } 5   XXXX}.}.:X!.U.R.Q.!.=X:XE.oXOX.XbX.X$X$X",
"bX~.R.W.W.%X%XXXXXQ.E.!.}._.3.$.$.$.V w 6 & u d +.p.a.a.p.! p.d.:.R R >.a.:.q.q.....p 0 K.;X>X7X9X3X*X,X!.=X-X=XoX,X$XbX.XbX.X$X",
"bXOX+X+XXXXXuXuXuXXXXX@X'.`.3.=.5.;.;.$.O.s / [ q.+.a.+.R Q ! p.h.R R ! p.q.` ` (  .w.z #.;X;X7X9X<XdX2X!.I.:XoXoX$X.X.X9.4.4.].",
"2.4..X.X].3.3.3. X|.$X@X3.-.5.;.l.;.A a m ( w.{ f.' Q ! :.s.X.W p.h.Q W q.[ / ^ u v m w.l A.;X;XdX[.%.4.|.uXuX].].].7.7.z.z.5.x.",
"l.7.].7.7.7.x.x.].3.`.y.;.y.;.@.&.A s v  .| ^ { W ' X.s.j.j.X.Q ) f.{ _ [ +.` / | & & i z r ;X#X%.`.).].2.2.7.7.6.7.x.z.c.c.c.eX",
"eXy.7.2.1.z.c.c.y.=.e.e.&.e.&.O.=.s n m c | ..E d :.>.d.d.! ! X.] ` .._ ] ] d x  .v O X o = C.n.G.|.$X X).4.4.7.7.].x.x.c.c.c.c.",
"eXc.z.x.z.c.c.i.e.e.u.u.A V O.i.k.v t 7 x x d E :.d.d.d.s.! X.p.) .._ ^ ^ } ( 7 5 7 p r @ ; T.|.XX$XOX$X$XuXuXtX7.7.l.l.l.c.eXc.",
"c.eXz.c.&.t.H KXu.u.i.H A Z Z A O.w & 9 d d Q p.j.s.s.X.X.X.X.' ) _ _ ~ ~ ~ } ../ 9 6 A.*.%.H.T.T.XXT.H.4.,.3.7.6.x.z.7.6.wXx.6.",
"eXy.c.=.t.e.e.&.D e.e.r.A A A A O.6 l | q.[ q.a.g.X.X._ ) ) ` ' ) ) .._ } k ^ } (  .6 S #.D.Q.Q.Q.XXXX|._.).4.5.7.z.6.x.z.l.6.7.",
"c.c.t.0.&.=.#.kXkXkXqXZ Z Z C y.H l 0. .w.w.w.[ f.{ _ _ _ _ ` ` X.[ ] / ] ` ~ ^ } ..v 7 & = > K.K.Q.oXoX+XXX.X).4.4.].z.x.x.c.eX",
"z.c.u.t.-.kXsX8X8X;X{.D N Z D qXn HX ./ / / ] ] ^ ) ) ) _ _ ^ / { p./ ` ' X.` ) ] ( x l H j 0 S K.I.U.E.^.OXXXXXXXuXuX6.6.l.c.l.",
"#.*.r.@.dX,XhXxX3XS.S.D * F D e.z c x ^ _ _ _ ) E ^ W ' ] _ ^ ~ E f.q.p.+.:.p.[ [ ( p i l n z V }.G.I.Q.R.Q.OX!.+XXX@XH.'./.'.`.",
"KXkX*.kX2XMX4X4X3X8Xm.m.#.- o X 7 i k ^ o.o._ ^ W Q Q { { ] ^ k ` h.h.a.a.a.a.q./ /  .7 O 5 8 y }.C.I.Q.!.!.!.!.^.!.oXmXVX2XdXVX",
"fXlXfXfXNX>X<X4X;XZ.S.m.Z.  o 1 9 m ..f.o.{ _ _ X.! :.X.' _ } ^ ] X.h.s.s.s.a.g.` d i M M 6 0 X !.I.Q.!.^.!.oX^.!.!.!.mXmX=XoXmX",
"fXfX7X8X4X5X>X>XV., , , D 0 e l  . ...{ X.W Q ! s.! s.p.] ]  .} ^ W h.X.! p.s.j.q.^ 9 7 e e 0 # E.Q.Q.!.!.!.!.!.!.:X=X<X^.E.E.-X",
"&X&X&X&X4X9X2XU.C.: &.&.e.l M GXM v l d R Q :.>.p.Q f...E x ..{ ] ] { X.W W ! o.X._ l 9 1 X   , &XE.E.!.!.!.!.oX,X+X^.+X!.~.^.W.",
"E.=X&XE.&X2X:XI.Z.> V C e.z l f 7 7 7 p / q.:.s.' ` ....u d _ X.] ] [ ..~ ~ E ! X...m f D qX1X2XmXmX9X,X:XQ.U.Q.Q.Q.Q.+X+X^.+X~.",
"L.Q.R.L.R.=X!.P.V.U > - w o X < 8 6 p v 0.f.q.[ d ^  .k i k _ o.[ / }  .| E ~ E ] ..HXb g 3 : oXoX#X%XoX}.Q.~.~.OX~.~.Q.Q.^.!.+X",
"+X!.!.!.E.L.I.G.; V C V w # 3 e e j v 0.HX .k u k  .M m k x ^ HX{ d i m | ^ d d x m M n e e 2 o   ; `.[.@X$X|.OX~.OX+X^.,X:X!.:X",
"MX<XoXU.R.N.Q.XX#.C Z V 0 0 r y z z h h h t i x | | GXm f x } } w.x i f m m c c p c l c n j 6 0 0 # o V ].].4.<.H.J.XXU.=X*X&X9X",
"2X2X;X&XU.!.XX/.).@.C A H H G 9 e t e 8 t 9 f c  .m } c c x | } ( ..| x b m b b l l 9 6 h j z e G y y N 5.1.$.2.,.H.%X#X>X5X4XcX",
"9X0X8X8X5X2X#X-.=.&.J n G J 0.O.;.t g t h l k m m  .x p x c k } x ^ | x m b b b p l l 9 < 5 n j l q q w z.l.c.wX6.`.dXVXgXFX0X6X",
"gX9X4X7X>X:X}.%.=.=.A A J e.t.O.A g j z z c m b c c p p l c m x ^ x v v M b b b m l m M 9 O O < O X O C 7.7.5.6.wX-.'./.P.2X9XCX",
"2XjXC.C.n.D.D.XX'.: : @.=.A & 1 g 8 g e h h h f f b l t b l m b c b c b n n 9 h m m } } | k 6 & @.].3.eX3. XbX$X].eX/.,.H.I.D.VX",
"#X#X{.#X@X X@X@X(.|.H._.S X 6 y j j g e g 9 8 9 b b h l h b b l l f l n b b l 9 f c | .. .0. .s Z ).A.A.+X+X~.XXyXyXpXiX XuX#XoX",
"@X|.iX[. X[.wX;.3./.G.G.y j z z t t e t h 1 < g b n z j 3 g j g e e h b b b n h 9 9 l z l v v q w +XoXoXnXW.~.%XiXpXrXpXyXyXoX:X",
"tXI @.=.3.6.;.=.=.$./.$.0 w j z j z j t e X < f g g g 3 g H n 1 8 g 8 8 g l n n j 6 < 6 0 & O + S @XXX,XN.*X,X#XY $.%.#.*.A.iXoX",
"y.&.&.t.y.l.y.;.&.C : O.- . + o + V V + X 3 g r g g 3 < e g 3 1 3 j e < 6 e e j t z t q 0 q pXtX&.t.;. XU.>X8X8XZXjX%.-.=.&.=.BX",
"*.r.KXKX*.&.-.*.S ;.c.c.2.O.* * * O.0 6 1 g H j g 1 o 3 g 3 o 3 3 j n e 6 1 1 O Z y j j y V @.=.&.e.@.#.2X6XvXvXvXhXsXLX*.i.t.t.",
"V.kXdXjXkX#., sXdX'.wX6.tXbX: U F.I # 0 g j r 3 1 1 2 H r 2 X 2 2 2 j G z t j 0 > qXrXaXiX*.@.$.LXkXA.U sXhX8XvXvX8XFXfXkXy.u.u.",
"jXdX2XZXfXfXNX4X9X2X[.[.|.OXOXW.N.M.- @ o 2 o X X X 2 2 2 4 N N B @ o 2 0 q # D aXaX{.&XsX1XkXsX2XhXlXjXCXCXhXvXlXhX6XhXlXkXy.u.",
"CX*X&X*X7X0X7X9X1XhXhX0X>X*X:X,X*XW.> ; C @.    @ @ 4 @ $ L B L F 4 @ @ sXaXfX;X;X&X{.{.sXsXfXaX6XDXhXhX6X5XFXVXeX'._.dXgXjXlXV.",
"MX-X&X&X*X<X2X9XCX4X4X6XDX<X,XoX-X-X%X'.C S . @ 4 4 L $ B L $ K L 4 - N fX8X8X;XZ.{.{.V.V.C.{.fX0XNXsXZXCXMXdX].y.c.3. XVXVXlXkX",
"XXoX+XoXoX^.,XoX:X:X9X9XMX^.^.+X+XoX{._.A.; -   4 B B $ $ $ B $ B $ 4 V.M.K.P.P.{.%.U I %.-.-.A.dXsXeX`.4.,.].wXeXeX7.4.).G.'.pX",
").]. XXX$XoXXXXXXX@X@XXX|.+X+X~.+X+XdXiX}.#.> m.m.;XV.S.m.m.K - 4 , S.M.N.R.F.}.C.C.A.A.-.%.-.].(.(.3.x.7.z.z.x.c.5.2.].3.5.x.wX",
"5.7.7.4.). X%X%X/.wXc.5.$.%._.bXQ.R.^.oXK.n.Y I , U > , , : Y C.n.n.C.D.J.I.F.F.I.D.C.%.n.H.T.J.J.J.`.`.7.7.z.x.x.6.wX[.eXc.c.c.",
"x.c.2.1.4.4.).)./.-.wX5.wXH.(.I.F.F.F.F.M.M.M.E.^.R.Y D.+X+XL.M.{.U.Z.S.{.K.!.I.F.F.F.F.D.R.bXOXOX.XpXrXtXx.1.7.].eX).-.eXc.c.c.",
"c.l.l.7.).<.,.,./.}.VXsXsXC.U.U.F.F.L.R.F.L.^.W.Q.OXbX,X=X&X6XzXS.S.8XfX;X;XP.K.L.N.Y.~.T..X_.].<.2.;.y.l.x.3.].yX%X@X4.9.z.k.c.",
";.5.l.wX X.XuXyXyXsX9X5X6X;X&XM.F.G.F.F.C.F.,X+XbX+X%XmXCXcXzXxXV.V.V.S.V.V.> V.Y Y D.<.Y %.$.@.$.,.c.l.;.3.,.@X#X}.bX$X1.1.z.z."
};
