/* XPM */
static char *result[] = {
/* columns rows colors chars-per-pixel */
"64 64 190 2 ",
"   c #151B2D",
".  c #191E2F",
"X  c #10172B",
"o  c #171D30",
"O  c #1A1F31",
"+  c #1C2234",
"@  c #1D253B",
"#  c #1D2C3E",
"$  c #222633",
"%  c #252936",
"&  c #21263A",
"*  c #20293F",
"=  c #2C2E3A",
"-  c #292A37",
";  c #2F3039",
":  c #33343D",
">  c #39353E",
",  c #3E3B3E",
"<  c #1F2E42",
"1  c #1F3144",
"2  c #222B44",
"3  c #262F48",
"4  c #2C3544",
"5  c #26324B",
"6  c #25394A",
"7  c #3D3B42",
"8  c #343D4C",
"9  c #383D4A",
"0  c #2B3653",
"q  c #263D54",
"w  c #2B3B55",
"e  c #2F3A5A",
"r  c #313E5D",
"t  c #433E43",
"y  c #27434F",
"u  c #264556",
"i  c #2B445C",
"p  c #28485C",
"a  c #3C4954",
"s  c #2E535D",
"d  c #344162",
"f  c #3D4A6F",
"g  c #324A66",
"h  c #2C5363",
"j  c #2D5569",
"k  c #33546E",
"l  c #315766",
"z  c #3D5375",
"x  c #3C5F7C",
"c  c #32616E",
"v  c #396C72",
"b  c #36627A",
"n  c #346A7C",
"m  c #396C79",
"M  c #3B6474",
"N  c #3C7176",
"B  c #3C737B",
"V  c #454445",
"C  c #4A4445",
"Z  c #49484A",
"A  c #534C4C",
"S  c #574B4B",
"D  c #5C534E",
"F  c #434D51",
"G  c #4F5559",
"H  c #515157",
"J  c #645653",
"K  c #655B52",
"L  c #6C5F53",
"P  c #715F59",
"I  c #6D6255",
"U  c #646159",
"Y  c #6F665A",
"T  c #746657",
"R  c #716559",
"E  c #766C5D",
"W  c #78695D",
"Q  c #7F705C",
"!  c #405278",
"~  c #566C6F",
"^  c #676764",
"/  c #746E64",
"(  c #7D7564",
")  c #787566",
"_  c #696C70",
"`  c #787370",
"'  c #84735E",
"]  c #8B7563",
"[  c #8A7C65",
"{  c #857C6B",
"}  c #937E66",
"|  c #997E6B",
" . c #947D69",
".. c #847F71",
"X. c #89836F",
"o. c #948166",
"O. c #998469",
"+. c #91846A",
"@. c #878073",
"#. c #9C8C72",
"$. c #908A73",
"%. c #9E977C",
"&. c #A28A6C",
"*. c #A2866F",
"=. c #A88B72",
"-. c #AE9472",
";. c #A69B7C",
":. c #A89A7A",
">. c #B79A77",
",. c #C2A47B",
"<. c #C8A97E",
"1. c #3B6C84",
"2. c #3E6180",
"3. c #3F738C",
"4. c #3D7888",
"5. c #3C7E91",
"6. c #406B88",
"7. c #406484",
"8. c #417F84",
"9. c #3E8296",
"0. c #3E8799",
"q. c #3F8A9C",
"w. c #478A8A",
"e. c #46888B",
"r. c #438E9C",
"t. c #468A95",
"y. c #538A93",
"u. c #44919E",
"i. c #4C979D",
"p. c #509E9C",
"a. c #7F8186",
"s. c #649695",
"d. c #799C93",
"f. c #4B9CA2",
"g. c #4FA2A5",
"h. c #53A5A4",
"j. c #56ACA9",
"k. c #55A9A4",
"l. c #5AB4AD",
"z. c #70AFA5",
"x. c #85878A",
"c. c #938B83",
"v. c #99A48D",
"b. c #81AC9E",
"n. c #A7A383",
"m. c #B8AA85",
"M. c #B1B18E",
"N. c #A7A49D",
"B. c #B2AD90",
"V. c #BBB597",
"C. c #9B9CA0",
"Z. c #BBB9B7",
"A. c #B9B8AB",
"S. c #C4AC81",
"D. c #CEB384",
"F. c #D4B483",
"G. c #D9B885",
"H. c #DABD8B",
"J. c #D2B78E",
"K. c #ABC5A5",
"L. c #DDC18C",
"P. c #DCC591",
"I. c #D7C899",
"U. c #E2CB95",
"Y. c #E7D39D",
"T. c #C7C8A6",
"R. c #D5C9A8",
"E. c #DDD2A3",
"W. c #C8C3BA",
"Q. c #E1C8A2",
"!. c #EAD9A3",
"~. c #E2D5AB",
"^. c #E6D8A3",
"/. c #EEDDBB",
"(. c #EFE1AC",
"). c #F1E2AB",
"_. c #EEE5BF",
"`. c #F1E4BA",
"'. c #F5E9BD",
"]. c #F3E5B7",
"[. c #C2C4CA",
"{. c #DED3C1",
"}. c #EDE4C8",
"|. c #F8EFCB",
" X c #F7EDC8",
".X c #EDE6D0",
"XX c #F1EADD",
"oX c #FCF6DD",
"OX c #FBF8ED",
"+X c None",
/* pixels */
"+X+X+X+X+X+X+X+X+X+X+X+X+X+X+X+X+X+X+X+X+X+X+X+X+X+X+X+X+X+X+X+X+X+X+X+X+X+X+X+X+X+X+X+X+X+X+X+X+X+X+X+X+X+X+X+X+X+X+X+X+X+X+X+X",
"+X+X+X+X+X+X+X+X+X+X+X+X+X+X+X+X+X+X+X+X+X+X+X+X+X+X+X+X+X+X+X+X+X+X+X+X+X+X+X+X+X+X+X+X+X+X+X+X+X+X+X+X+X+X+X+X+X+X+X+X+X+X+X+X",
"+X+X+X+X+X+X+X+X+X+X+X+X+X+X+X+X+X+X+X+X+X+X+X+X+X+X+X+X+X+X+X+X+X+X+X+X+X+X+X+X+X+X+X+X+X+X+X+X+X+X+X+X+X+X+X+X+X+X+X+X+X+X+X+X",
"+X+X+X+X+X+X+X+X+X+X+X+X+X+X+X+X+X+X+X+X+X+X+X+X+X+X+X+X+X+X+X+X+X+X+X+X+X+X+X+X+X+X+X+X+X+X+X+X+X+X+X+X+X+X+X+X+X+X+X+X+X+X+X+X",
"+X+X+X+X+X+X+X+X+X+X+X+X+X+X+X+X+X+X+X+X+X+X+X+X+X+X+X+X+X+X+X+X+X+X+X+X+X+X+X+X+X+X+X+X+X+X+X+X+X+X+X+X+X+X+X+X+X+X+X+X+X+X+X+X",
"+X+X+X+X+X+X+X+X+X+X+X+X+X+X+X+X+X+X+X+X+X+X+X+X+X+X+X+X+X+X+X+X+X+X+X+X+X+X+X+X+X+X+X+X+X+X+X+X+X+X+X+X+X+X+X+X+X+X+X+X+X+X+X+X",
"+X+X+X+X+X+X+X+X+X+X+X+X+X+X+X+X+X+X+X+X+X+X+X+X+X+X+X+X+X+X+X+X+X+X+X+X+X+X+X+X+X+X+X+X+X+X+X+X+X+X+X+X+X+X+X+X+X+X+X+X+X+X+X+X",
"+X+X+X+X+X+X+X+X+X+X+X+X+X+X+X+X+X+X+X+X+X+X+X+X+X+X+X+X+X+X+X+X+X+X+X+X+X+X+X+X+X+X+X+X+X+X+X+X+X+X+X+X+X+X+X+X+X+X+X+X+X+X+X+X",
"+X+X+X+X+X+X+X+X+X+X+X+X+X+X+X+X+X+X+X+X+X+X+X+X+X+X+X+X+X+X+X+X+X+X+X+X+X+X+X+X+X+X+X+X+X+X+X+X+X+X+X+X+X+X+X+X+X+X+X+X+X+X+X+X",
"+X+X+X+X+X+X+X+X+X+X+X+X+X+X+X+X+X+X+X+X+X+X+X+X+X+X+X+X+X+X+X+X+X+X+X+X+X+X+X+X+X+X+X+X+X+X+X+X+X+X+X+X+X+X+X+X+X+X+X+X+X+X+X+X",
"+X+X+X+X+X+X+X+X+X+X+X+X+X+X+X+X+X+X+X+X+X+X+X+X+X+X+X+X+X+X+X+X+X+X+X+X+X+X+X+X+X+X+X+X+X+X+X+X+X+X+X+X+X+X+X+X+X+X+X+X+X+X+X+X",
"+X+X+X+X+X+X+X+X+X+X+X+X+X+X+X+X+X+X+X+X+X+X+X+X+X+X+X+X+X+X+X+X+X+X+X+X+X+X+X+X+X+X+X+X+X+X+X+X+X+X+X+X+X+X+X+X+X+X+X+X+X+X+X+X",
"+X+X+X+X+X+X+X+X+X+X+X+X+X+X+X+X+X+X+X+X+X+X+X+X+X+X+X+X+X+X+X+X+X+X+X+X+X+X+X+X+X+X+X+X+X+X+X+X+X+X+X+X+X+X+X+X+X+X+X+X+X+X+X+X",
"+X+X+X+X+X+X+X+X+X+X+X+X+X+X+X+X+X+X+X+X+X+X+X+X+X@ h #   +X+X+X+X+X+X+X+X+X+X+X+X+X+X+X+X+X+X+X+X+X+X+X+X+X+X+X+X+X+X+X+X+X+X+X",
"+X+X+X+X+X+X+X+X+X+X+X+X+X+X+X+X+X+X+X+X+X+X+X+X+ u t.w.v y +X+X+X+X+X+X+X+X+X+X+X+X+X+X+X+X+X+X+X+X+X+X+X+X+X+X+X+X+X+X+X+X+X+X",
"+X+X+X+X+X+X+X+X+X+X+X+X+X+X+X+X+X+X+X+X+X+X+Xo j u.h.l.g.k.B +X+X+X+X+X+X+X+X+X+X+X+X+X+X+X+X+X+X+X+X+X+X+X+X+X+X+X+X+X+X+X+X+X",
"+X+X+X+X+X+X+X+X+X+X+X+X+X+X+X+X+X+X+X+X+X+X  q 5.f.l.l.h.j.j.c +X+X+X+X+X+X+X+X+X+X+X+X+X+X+X+X+X+X+X+X+X+X+X+X+X+X+X+X+X+X+X+X",
"+X+X+X+X+X+X+X+X+X+X+X+X+X+X+X+X+X+X+X+X+X+X+ k 5.n M e.j.i.h.w.< +X+X+X+X+X+X+X+X+X+X+X+X+X+X+X+X+X+X+X+X+X+X+X+X+X+X+X+X+X+X+X",
"+X+X+X+X+X+X+X+X+X+X+X+X+X+X+X+X+X+X+X+X+X+X* 1.n 2 @ O N k.N p.h +X+X+X+X+X+X+X+X+X+X+X+X+X+X+X+X+X+X+X+X+X+X+X+X+X+X+X+X+X+X+X",
"+X+X+X+X+X+X+X+X+X+X+X+X+X+X+X+X+X+X+X+X+X+X@ x 3.! f 2 @ e.4.N l +X+X+X+X+X+X+X+X+X+X+X+X+X+X+X+X+X+X+X+X+X+X+X+X+X+X+X+X+X+X+X",
"+X+X+X+X+X+X+X+X+X+X+X+X+X+X+X+X+X+X+X+X+X+X+Xw 2.z f 2   u 8.b g +X+X+X+X+X+X+X+X+X+X+X+X+X+X+X+X+X+X+X+X+X+X+X+X+X+X+X+X+X+X+X",
"+X+X+X+X+X+X+X+X+X+X+X+X+X+X+X+X+X+X+X+X+X+X+XO 2 3 * o +X5 k k 5 +X+X+X+X+X+X+X+X+X+X+X+X+X+X+X+X+X+X+X+X+X+X+X+X+X+X+X+X+X+X+X",
"+X+X+X+X+X+X+X+X+X+X+X+X+X+X+X+X+X+X+X+X+X+X+X+X+X  +X+X. 1 i p   +X+X+X+X+X+X+X+X+X+X+X+X+X+X+X+X+X+X+X+X+X+X+X+X+X+X+X+X+X+X+X",
"+X+X+X+X+X+X+X+X+X+X+X+X+X+X+X+X+X+X+X+X+X+X+X+X+X+X% K A 0 @ 9 ` 9 +X+X+X+X+X+X+X+X+X+X+X+X+X+X+X+X+X+X+X+X+X+X+X+X+X+X+X+X+X+X",
"+X+X+X+X+X+X+X+X+X+X+X+X+X+X+X+X+X+X+X+X+X+X+X+X+X+X% c.W.[.Z.W.{.H   +X+X+X+X+X+X+X+X+XJ.+X+X+X+X+X+X+X+X+X+X+X+X+X+X+X+X+X+X+X",
"+X+X+X+X+X+X+X+X+X+X+X+X+X+X+X+X+X+X+X+X+X+X+X+X+XO D ( ~.'.`./.~.m.S +X+X+X+X+X+X+X+XQ.Z.+X+X+X+X+X+X+X+X+X+X+X+X+X+X+X+X+X+X+X",
"+X+X+X+X+X+X+X+X+X+X+X+X+X+X+X+X+X+X+X+X+X+X+X+X+X= ] F.!.`.|.OXOX}.#.+X+X+X+X+X+X+XY XXA.+X+X+X+X+X+X+X+X+X+X+X+X+X+X+X+X+X+X+X",
"+X+X+X+X+X+X+X+X+X+X+X+X+X+X+X+X+X+X+X+X+X+X+X+X+Xt *.F.Y.(.(.'.N.S.I.V +X+X+X+X+X+XV.OXB.+X+X+X+X+X+X+X+X+X+X+X+X+X+X+X+X+X+X+X",
"+X+X+X+X+X+X+X+X+X+X+X+X+X+X+X+X+X+X+X+X+X+X+X+Xo C =.F.H.!.).|.x.R ~.Z +X+X+X+X+X{ .X/.;.+X+X+X+X+X+X+X+X+X+X+X+X+X+X+X+X+X+X+X",
"+X+X+X+X+X+X+X+X+X+X+X+X+X+X+X+X+X+X+X+X+X+X+X+XO P >.G.F.H.!.oXx., I.@.+X+X+X+X+X_ }.L.( +X+X+X+X+X+X+X+X+X+X+X+X+X+X+X+X+X+X+X",
"+X+X+X+X+X+X+X+X+X+X+X+X+X+X+X+X+X+X+X+X$ +X+X+XO W ,.G.F.G.Y. Xa.+ :./ +X+X+X+X+ n.Y.>.: +X+X+X+X+X+X+X+X+X+X+X+X+X+X+X+X+X+X+X",
"+X+X+X+X+X+X+X+X+X+X+X+X+X+X+X+X+X+X+X+XC D +X+XO t | S.| J I _ 4   $ %   +X+X+XZ I.H.Q +X+X+X+X+X+X+X+X+X+X+X+X+X+X+X+X+X+X+X+X",
"+X+X+X+X+X+X+X+X+X+X+X+X+X+X+X+X+X+X+X+X$ ' D X   t *.F.D.$.Z - $   t ..& +X+X+X( ;.,.V +X+X+X+X+X+X+X+X+X+X+X+X+X+X+X+X+X+X+X+X",
"+X+X+X+X+X+X+X+X+X+X+X+X+X+X+X+X+X+X+X+Xs a o.V   = | >.F.U.I.R.C.O #.~.Z +X+X: n.] O.% +X+X+X+X+X+X+X+X+X+X+X+X+X+X+X+X+X+X+X+X",
"+X+X+X+X+X+X+X+X+X+X+X+X+X+X+X+X+X+X+X+Xn 9.~ o.P = A | D.F.Y.'.W.7 R.~.Z +X+XU n.O.K +X+X+X+X+X+X+X+X+X+X+X+X+X+X+X+X+X+X+X+X+X",
"+X+X+X+X+X+X+X+X+X+X+X+X+X+X+X+X+X+X+X+Xn 0.y.#.' +.{ K O.G.H.(.T./ ^.m.: s @ [ E &.: +X+X+X+X+X+X+X+X+X+X+X+X+X+X+X+X+X+X+X+X+X",
"+X+X+X+X+X+X+X+X+X+X+X+X+X+X+X+X+X+X+X+Xn q.p.,.} D ( E t -.H.(._..X!.E u B F ' K ' +X+X+X+X+X+X+X+X+X+X+X+X+X+X+X+X+X+X+X+X+X+X",
"+X+X+X+X+X+X+X+X+X+X+X+X+X+X+X+X+X+X+X+Xn q.z.E.L.,.U R X $ R I.'. X;.4 9.y U K R t +X+X+X+X+X+X+X+X+X+X+X+X+X+X+X+X+X+X+X+X+X+X",
"+X+X+X+X+X+X+X+X+X+X+X+X+X+X+X+X+X+X+X+Xv 0.k.T.U.<.E I < @   9 X.%.a e m 4.4 : J + +X+X+X+X+X+X+X+X+X+X+X+X+X+X+X+X+X+X+X+X+X+X",
"+X+X+X+X+X+X+X+X+X+X+X+X+X+X+X+X+X+X+X+XX.d.i.V.U.F.o.L w 2.d 2 . + g z < h m q & w 6 +X+X+X+X+X+X+X+X+X+X+X+X+X+X+X+X+X+X+X+X+X",
"+X+X+X+X+X+X+X+X+X+X+X+X+X+X+X+X+X+X+X+X&.H.K.M.F.F.-.T q 9.3.z e r 6.i t J 8 d 0 < @ +X+X+X+X+X+X+X+X+X+X+X+X+X+X+X+X+X+X+X+X+X",
"+X+X+X+X+X+X+X+X+X+X+X+X+X+X+X+X+X+X+X+X' L.^.b.v.<.*.T q 9.0.5.2.7.b + D ,. .= 5 3 +X+X+X+X+X+X+X+X+X+X+X+X+X+X+X+X+X+X+X+X+X+X",
"+X+X+X+X+X+X+X+X+X+X+X+X+X+X+X+X+X+X+X+XL <.I.z.f.s.U L 0 1.8.0.9.1.2   C ,.G.J   o +X+X+X+X+X+X+X+X+X+X+X+X+X+X+X+X+X+X+X+X+X+X",
"+X+X+X+X+X+X+X+X+X+X+X+X+X+X+X+X+X+X+X+X; -.<.b.u.0.a S < 0 e r q <   o & A I : +X+X+X+X+X+X+X+X+X+X+X+X+X+X+X+X+X+X+X+X+X+X+X+X",
"+X+X+X+X+X+X+X+X+X+X+X+X+X+X+X+X+X+X+X+X+XA ,.v.t.5.G >             +XO 0 + o +X+X+X+X+X+X+X+X+X+X+X+X+X+X+X+X+X+X+X+X+X+X+X+X+X",
"+X+X+X+X+X+X+X+X+X+X+X+X+X+X+X+X+X+X+X+X+X+XK m.t.l 7       +X.   +X+X+X+ + +X+X+X+X+X+X+X+X+X+X+X+X+X+X+X+X+X+X+X+X+X+X+X+X+X+X",
"+X+X+X+X+X+X+X+X+X+X+X+X+X+X+X+X+X+X+X+X+X+X$ U M : O +X    +X    +X+X+X+X+X+X+X+X+X+X+X+X+X+X+X+X+X+X+X+X+X+X+X+X+X+X+X+X+X+X+X",
"+X+X+X+X+X+X+X+X+X+X+X+X+X+X+X+X+X+X+X+X+X+X+X+ = > +X+X.   +X. o +X+X+X+X+X+X+X+X+X+X+X+X+X+X+X+X+X+X+X+X+X+X+X+X+X+X+X+X+X+X+X",
"+X+X+X+X+X+X+X+X+X+X+X+X+X+X+X+X+X+X+X+X+X+X+X+X  +X+X+X+X+X+X+X+X+X+X+X+X+X+X+X+X+X+X+X+X+X+X+X+X+X+X+X+X+X+X+X+X+X+X+X+X+X+X+X",
"+X+X+X+X+X+X+X+X+X+X+X+X+X+X+X+X+X+X+X+X+X+X+X+X+X+X+X+X+X+X+X+X+X+X+X+X+X+X+X+X+X+X+X+X+X+X+X+X+X+X+X+X+X+X+X+X+X+X+X+X+X+X+X+X",
"+X+X+X+X+X+X+X+X+X+X+X+X+X+X+X+X+X+X+X+X+X+X+X+X+X+X+X+X+X+X+X+X+X+X+X+X+X+X+X+X+X+X+X+X+X+X+X+X+X+X+X+X+X+X+X+X+X+X+X+X+X+X+X+X",
"+X+X+X+X+X+X+X+X+X+X+X+X+X+X+X+X+X+X+X+X+X+X+X+X+X+X+X+X+X+X+X+X+X+X+X+X+X+X+X+X+X+X+X+X+X+X+X+X+X+X+X+X+X+X+X+X+X+X+X+X+X+X+X+X",
"+X+X+X+X+X+X+X+X+X+X+X+X+X+X+X+X+X+X+X+X+X+X+X+X+X+X+X+X+X+X+X+X+X+X+X+X+X+X+X+X+X+X+X+X+X+X+X+X+X+X+X+X+X+X+X+X+X+X+X+X+X+X+X+X",
"+X+X+X+X+X+X+X+X+X+X+X+X+X+X+X+X+X+X+X+X+X+X+X+X+X+X+X+X+X+X+X+X+X+X+X+X+X+X+X+X+X+X+X+X+X+X+X+X+X+X+X+X+X+X+X+X+X+X+X+X+X+X+X+X",
"+X+X+X+X+X+X+X+X+X+X+X+X+X+X+X+X+X+X+X+X+X+X+X+X+X+X+X+X+X+X+X+X+X+X+X+X+X+X+X+X+X+X+X+X+X+X+X+X+X+X+X+X+X+X+X+X+X+X+X+X+X+X+X+X",
"+X+X+X+X+X+X+X+X+X+X+X+X+X+X+X+X+X+X+X+X+X+X+X+X+X+X+X+X+X+X+X+X+X+X+X+X+X+X+X+X+X+X+X+X+X+X+X+X+X+X+X+X+X+X+X+X+X+X+X+X+X+X+X+X",
"+X+X+X+X+X+X+X+X+X+X+X+X+X+X+X+X+X+X+X+X+X+X+X+X+X+X+X+X+X+X+X+X+X+X+X+X+X+X+X+X+X+X+X+X+X+X+X+X+X+X+X+X+X+X+X+X+X+X+X+X+X+X+X+X",
"+X+X+X+X+X+X+X+X+X+X+X+X+X+X+X+X+X+X+X+X+X+X+X+X+X+X+X+X+X+X+X+X+X+X+X+X+X+X+X+X+X+X+X+X+X+X+X+X+X+X+X+X+X+X+X+X+X+X+X+X+X+X+X+X",
"+X+X+X+X+X+X+X+X+X+X+X+X+X+X+X+X+X+X+X+X+X+X+X+X+X+X+X+X+X+X+X+X+X+X+X+X+X+X+X+X+X+X+X+X+X+X+X+X+X+X+X+X+X+X+X+X+X+X+X+X+X+X+X+X",
"+X+X+X+X+X+X+X+X+X+X+X+X+X+X+X+X+X+X+X+X+X+X+X+X+X+X+X+X+X+X+X+X+X+X+X+X+X+X+X+X+X+X+X+X+X+X+X+X+X+X+X+X+X+X+X+X+X+X+X+X+X+X+X+X",
"+X+X+X+X+X+X+X+X+X+X+X+X+X+X+X+X+X+X+X+X+X+X+X+X+X+X+X+X+X+X+X+X+X+X+X+X+X+X+X+X+X+X+X+X+X+X+X+X+X+X+X+X+X+X+X+X+X+X+X+X+X+X+X+X",
"+X+X+X+X+X+X+X+X+X+X+X+X+X+X+X+X+X+X+X+X+X+X+X+X+X+X+X+X+X+X+X+X+X+X+X+X+X+X+X+X+X+X+X+X+X+X+X+X+X+X+X+X+X+X+X+X+X+X+X+X+X+X+X+X",
"+X+X+X+X+X+X+X+X+X+X+X+X+X+X+X+X+X+X+X+X+X+X+X+X+X+X+X+X+X+X+X+X+X+X+X+X+X+X+X+X+X+X+X+X+X+X+X+X+X+X+X+X+X+X+X+X+X+X+X+X+X+X+X+X",
"+X+X+X+X+X+X+X+X+X+X+X+X+X+X+X+X+X+X+X+X+X+X+X+X+X+X+X+X+X+X+X+X+X+X+X+X+X+X+X+X+X+X+X+X+X+X+X+X+X+X+X+X+X+X+X+X+X+X+X+X+X+X+X+X"
};
