/* XPM */
static char *result[] = {
/* columns rows colors chars-per-pixel */
"64 64 249 2 ",
"   c #3B3F1B",
".  c #29382B",
"X  c #373934",
"o  c #3B421B",
"O  c #374831",
"+  c #42511E",
"@  c #4A512B",
"#  c #4B5837",
"$  c #595A37",
"%  c #625C3A",
"&  c #57672A",
"*  c #44603F",
"=  c #586838",
"-  c #5C733B",
";  c #666A3D",
":  c #677939",
">  c #73753A",
",  c #4F534B",
"<  c #576A45",
"1  c #58704F",
"2  c #58784A",
"3  c #676A45",
"4  c #677746",
"5  c #767B49",
"6  c #716C52",
"7  c #697653",
"8  c #767955",
"9  c #787B72",
"0  c #887C5E",
"q  c #6B823B",
"w  c #78883C",
"e  c #72923E",
"r  c #5F844E",
"t  c #6A8747",
"y  c #778948",
"u  c #6B934C",
"i  c #799648",
"p  c #7D934C",
"a  c #678B57",
"s  c #788857",
"d  c #6B9459",
"f  c #759453",
"g  c #779957",
"h  c #7C9D55",
"j  c #72935B",
"k  c #7A955C",
"l  c #7AA74B",
"z  c #7CA44C",
"x  c #76A555",
"c  c #7BA555",
"v  c #75AB54",
"b  c #7DAB54",
"n  c #76A45C",
"m  c #7BA65C",
"M  c #75AA5B",
"N  c #7CAA5C",
"B  c #7CB158",
"V  c #698B68",
"C  c #768967",
"Z  c #748D65",
"A  c #6B9263",
"S  c #689668",
"D  c #6C946B",
"F  c #719464",
"G  c #799966",
"H  c #72946B",
"J  c #688773",
"K  c #728673",
"L  c #6A9278",
"P  c #749674",
"I  c #74A564",
"U  c #7CA663",
"Y  c #77AC64",
"T  c #7CAA63",
"R  c #7DA56A",
"E  c #7CAA6A",
"W  c #78A96C",
"Q  c #7AB164",
"!  c #85903E",
"~  c #9DB83F",
"^  c #A9B23D",
"/  c #828B4D",
"(  c #869648",
")  c #959648",
"_  c #868857",
"`  c #968C5B",
"'  c #829453",
"]  c #869957",
"[  c #979959",
"{  c #A39C5F",
"}  c #87A743",
"|  c #83A44C",
" . c #8AA54B",
".. c #84AB4C",
"X. c #8CAC4D",
"o. c #92A34C",
"O. c #97A949",
"+. c #8CB349",
"@. c #9BB444",
"#. c #95B845",
"$. c #9CBA45",
"%. c #94B54B",
"&. c #9CB54C",
"*. c #96BC4C",
"=. c #9CBA4C",
"-. c #83A554",
";. c #8BA554",
":. c #83AB54",
">. c #8BAB53",
",. c #84A55C",
"<. c #89A45C",
"1. c #83AB5B",
"2. c #8BAB5C",
"3. c #94AA54",
"4. c #95A856",
"5. c #87B557",
"6. c #8DB354",
"7. c #8CB35B",
"8. c #8CBB5A",
"9. c #94B454",
"0. c #9BB553",
"q. c #95BB53",
"w. c #9CBB53",
"e. c #93B55B",
"r. c #9BB55B",
"t. c #94BA5B",
"y. c #9BBB5B",
"u. c #A5AA4C",
"i. c #A3BA46",
"p. c #A3B54C",
"a. c #AAB44C",
"s. c #A7B849",
"d. c #A2BA4D",
"f. c #B6B74B",
"g. c #A7AB56",
"h. c #B2AF51",
"j. c #A3B552",
"k. c #ABB553",
"l. c #A2BA53",
"z. c #ABBB54",
"x. c #A7B65B",
"c. c #A1BB5B",
"v. c #ACBD5B",
"b. c #B4B454",
"n. c #BAB556",
"m. c #B4BC55",
"M. c #BABB56",
"N. c #B5B55C",
"B. c #BAB45A",
"V. c #B5BC5B",
"C. c #BBBC5C",
"Z. c #888967",
"A. c #8A8F6F",
"S. c #899B65",
"D. c #969769",
"F. c #979677",
"G. c #A39B6C",
"H. c #8AA462",
"J. c #82AB63",
"K. c #87A868",
"L. c #82AC6B",
"P. c #95A869",
"I. c #8AB565",
"U. c #8DBA63",
"Y. c #8CB46C",
"T. c #94B663",
"R. c #9CB664",
"E. c #94BC63",
"W. c #9ABB62",
"Q. c #98B46B",
"!. c #94BB6A",
"~. c #9ABC6C",
"^. c #89A876",
"/. c #98A977",
"(. c #8AB473",
"). c #96B875",
"_. c #A7A966",
"`. c #A4BD64",
"'. c #ACBC63",
"]. c #A8B768",
"[. c #ABBD6D",
"{. c #B5B667",
"}. c #B4BC63",
"|. c #BBBD63",
" X c #B4BC6C",
".X c #BBBD6A",
"XX c #A9A876",
"oX c #B7AC75",
"OX c #ACBA76",
"+X c #A9B678",
"@X c #B5BD73",
"#X c #B7B77A",
"$X c #C1BB4D",
"%X c #C3B858",
"&X c #C2BC5B",
"*X c #C2BC62",
"=X c #C4BC66",
"-X c #C3B57B",
";X c #9BC14C",
":X c #9DC255",
">X c #94C158",
",X c #9BC15C",
"<X c #ABC24D",
"1X c #ACC155",
"2X c #A3C158",
"3X c #ADC15B",
"4X c #B3C25C",
"5X c #B9C459",
"6X c #BAC25D",
"7X c #98C366",
"8X c #AAC467",
"9X c #ADC46C",
"0X c #B5C263",
"qX c #BCC263",
"wX c #B7C965",
"eX c #B4C36B",
"rX c #BDC26C",
"tX c #ADC376",
"yX c #BCC273",
"uX c #B4C379",
"iX c #C4C456",
"pX c #C3C25C",
"aX c #C3C264",
"sX c #C6C665",
"dX c #C3C469",
"fX c #C9C76D",
"gX c #6A9182",
"hX c #7FA785",
"jX c #929580",
"kX c #97AB80",
"lX c #A8A983",
"zX c #B5AE85",
"xX c #A9BC88",
"cX c #B7B887",
"vX c #B7B892",
"bX c #C7BC90",
"nX c #A9C488",
"mX c #BAC587",
"MX c #BCC39A",
"NX c #C8C588",
"BX c #C9C897",
"VX c #D1CC90",
"CX c #CBD39B",
"ZX c #D6D69C",
"AX c #CDD3A9",
"SX c #D6D8A7",
"DX c #E1DBB5",
"FX c #DCE4AF",
"GX c #F3EDCD",
/* pixels */
"~ $.=.@.p.4X6Xk.h.|.|.&X&X5X5Xs.%.$.=.=.=.d.w.w.j.j.l.a.l.4X5X1X1Xd.p.c.<X5X&XpXC.k.i.=.9.>X*.*.=.=.0.w.=.i.$.i.i.d.l.0.2.,.| :.",
"=.#.l.wXwXV.V.}.}..X.Xv.6XV.C.a.a.d.d.d.=.w.l.w.w.w.0.&.p.d.l.1Xd.i.&.0.z.1XV.C.qXV.l.l.l.q.=.=.=.=.w.w.=.=.i.$.&.=.w.w.r.t.t.7X",
"E.W.9XOX X XeX XtXtX;.3. .].}.rXC.%Xn.k.a.j.w.q.q.>Xq.:X:X=.=.=.d.i.l.w.w.0.a.l.k.p.&.&.w.0.d.=.=.q.=.d.d.p.d.=.l.:Xq.*.=.q.w.q.",
"!.,.;.;.4.o.o.;.;.H.m c -.T.[..X|.|.qX0X8X8X8X8X} l ..q.t.t.t.y.w.0.y.r.y.0.w.=.w.l.w.d.d.i.i.i.q.;X=.=.w.l.w.l.w.=.*.*.;X;Xq.q.",
"m 1.2.] o.l.c.} b N Q N 1.-.H.<.-.,.,.1.,.1.N N J.J.N m 1.1.1.-.E.E.E.E.E.y.t.q.*.*.:Xw.p.p.i.i.l.w.=.;Xq.q.q.q.*.=.=.$.;X#.q.8.",
">.l ..t.y.w.0.,XB v B v c J.K.K.T Q J.T Y Y U U T T U U J.J.J.1.1.:.,.-.....l } +.#.*.=.&.i.=.d.i.d.=.=.q.q.q.=.=.d.d.=.#.#.+...",
"q.q.:X:X0.0.y.w.;X#.>XB J.n I n N M M m U T T J.T N J.J.T m n m N b :.>.+.*.;X;X=.;Xd.d.l.w.w.*.i.i.j.0.w.=.q.w.=.d.=.l.0.r.0.0.",
"E.8.*.=.w.r.r.y.~ $.;Xq.m J.m !.!.U.U.1.:.c 1.m 1.,.,.1.1.c 1.!.E.E.t.0.=.=.=.>Xq.=.=.$.d.0.:Xq.=.=.r.R.R.R.W.y.y.w.0.r.].Q.].~.",
"d ).w.d.w.z.u.0X1X5Xc.r.-.1.t.*.0.0.t.0.X.q.y.t.....t.t.t.t.r.y.9.,X0.z.i.@.j.y.y.%.@.<X@.=.,X*.q.q.).A A D d d I.7X9.E.f a H Z ",
"j f R.c.k.a.aXM.z.5X}.].4.| %.w.&.0.&.0.X.*.*.9.%.=.0.0.j.w.j.0.l.&.p.@.s.i.c.R.R.`.=.@.0.w.y.t.U.c a A Z F A j g Y.Y.u j G a G ",
"tXy e ].0.|.M.&XsX*X*XC.V.O.X.9.*.w.=.=.=.w.%.0.0.p.j.k.N.V.C.6X3Xl.j.j.l.t.~.(.(.!.W.,XW.e.E.!.d a k tXOX[.] s F H P F u [.yXC.",
"eXwX Xw x.qX&X&X%X%Xn.&XsXV.r.y.9.=.@.%.p.a.p.m.6XV.m.m.M.C.C.V.4X&.0.0.e.~.u g G a g Y.Y.i f k L P +X X|.dX{.mXs P V Z nX}.&X$X",
"6Xb.qXqXz.5Xm.pX%X=X%X&XC.V.j.j.j.d.p.p.m.m.m.&Xn.h.g.b.m.C.C.4X0.,X>X5.I.g d d a D Z F F f s C K C cXeXaXn.M.C.eXuX' OX X.XdX*X",
"6XC.6XC.sX6Xf.C.%X%X=X&Xm.qXV.0Xp.&.s.s.m.5XM.V.g.( [ / [ O.p.u.7.i e Y.d j t nXnXf G Z j y xXxXZ.C y yX6X&XM.iXC.C.{.yXdXB.|.*X",
"|.|.|.B.n.&XpXC.&X|.qX|.M.pXC.m.p.@.i.&.=.&.p.O.i f H.K.] i ( e.k a j a A C uX X{.yXs / / yXeXuX@X X! dXb.C.n.&XB.aXB.*XB.aXb.iX",
"k.k.k.qXC.*XC.|.o.o.8X0XM.M.C.C.4Xv.3Xd.=.@.%.} ] K.L.Q.K.^.n f s j xXxXC s @XC.C.V.#X#XqXN.|.|.C.qXV.{.dXV.dXV.=XC.*X*X*XpXn.^ ",
"j.c.j.x.0X4X`.;.H.<.;.}.qXC.B.|.}.v.3X1Xi.O.| c K.^.^.Q.).).L r 5 ].#X X@X Xv.6X5XC.|.|.|.qX}.6X1X6XM.C.|.}.3. . .3. X.X|.V.a.i.",
"q.w.r.r.r.>.7.,.U J.<.'.0X6X|.V.}.z.s.d.=.@.( h S.G S.^.)./.kXkXg.C.B.m.qXV.p.i.a.m.6X&XC.N.z.c.0.c.eX XuX;.c m N c ;.g.v.V.d.=.",
"q.8.7.1.1.,.m m T J.1.t.w.d.s.a.s.p.&.@.=.O.( H.H.] [ r.P.).P.^._.N.|.}.z.d.&.d.p.a.C.&XC.m.j.0.1.T ,.K.E E Y Y Q v 7.9.l.w.@.#.",
"8.:.c m J.N J.J.N J.m 5.6.;X=.s.@.a.=.*.=.@.( S._.H.' ( -.P.P.P._.N.v.z.&.%.=.@.s.a.m.b.6Xj.&...N E R E I W W Y M Y I.E.t.*.;X:X",
":.N N N v B 5.E.m N m v :.6.0.w.d.l.&.#.=.d.o.s [ ' k y ( ' P.H._.g.&.0.0.%.w.w.&.&.x.c.8Xr.r.;.1.m J.T J.U E I Y T N 1.1.1.7.E.",
"N N N v B 8.q.>Xt.!.I.N b 6.X.&.0.0.&.*.=.%. .q t y / p ! ' ] h  .&.w.w.%.w.l.0.r.0.W.e.E.:.:.c :.:.b c m N J.T T T I U N m J.N ",
"1.2.H.m 1.7Xy.q.:Xq.q.q.6.:X9.c.0.0.d.=.%.+.| 4 t t w q q w ( ] ( %.w.=.*.w.&.} } | ..v M B T 1.c !.7X7X1.N c 1.H.J.U J.J.U J.K.",
">.T.T.2.-.R.y.w.=.$.=.;X=.y.9.r.y.0.&.=.w.6.x t r t 3 6 7 : y ( ] t ! *.*.#.&.l.y.q.b l u N N ,.R.q.8.8.t.:...R.Q.T.1.1.m m H.,.",
"q.w.y.r.4.;.r.c.l.i.$.$.d.l.y.y.y.q.w.q.t.:.d a a 2 # F.bXvXnXcXAX5 q ~ #.#.$.=.d.0.X.4 xXz c :.y.0.w.q.9.%.%.c.c.y.q.8.5.......",
"*.*.=.0.y.c.R.0.0.=.i.i.d.0.e.7.:...6.t.7.N g A a < 3 s CXSXAXAXBXlX4 ~ ;X#.d.<XC.a.! vXmX>.t.y.z.a.d.*.%.&.p.j.p.=.q.8.q.8.t.y.",
">X*.=.$.=.w.y.t.w.w.&.l.c.e.1.N b N 1.1.c x g j 7 # A.zXCXSXFXSXDXAX/.y &.d.m.5X&Xh.` DX+Xg.V.qX6Xm.z.z.d.d.a.i.j.0.,X>X>X>X8.E.",
">Xq.:X:X9.t.E.E.E.t.w.y.e.7.1.m T m T v M x c g t < A.cXNXCXCXCX).lXMXy x.6XC.%X%Xh.bXGX#Xh.B.C.|.v.0Xv.&.&.c.r.0.t.8.8.B B :.m ",
"v :.8.8.1.b m :.8.t.W.E.1.m T T E Y T N N x n d < < D.zXzXVXCXCXS.s MXs N.*X*X*XB.g.DXSXoXb.&XqX9X2.h ..7.!.!.:.1.1.1.T Y Y I N ",
"U T 1.J.N T R J.J.:.,.K.U T T I R T T m t u d d < 8 lXzX+X#XmXCXS.4 MXS.o.b.B.*X6Xg.SXbXg.V.|.eX;.:.1.N c b N 1.N m T Y I E E R ",
"K.R n v M Y E L.R F A H D W J.Y T 1.1.u . X V r , 9 lXzXzX-XVXSXS.3 lXZ.! a.b.5Xb.oXVXXX[ &.O.} ..6.,Xt.5.v b 1.N 1.T T T R R R ",
"L.K.T Q Y W W W H V L L V D (.7X).(.!.g , , . * X , Z.zX` > 5 _ 4 = @ $ ) M.m.m.u.NXbX{ 4.&.q.q.w.y.t.t.t.U.7XU.N T T T T T R R ",
"R L.Y Y S S S jXJ L L L V D V D D D F A X 9 1 X X , Z.bXoX[ ; ; 0 ; 3 D.> f.C.n.{ XXoX) u.w.q.>Xq.q.q.>.:.:.m N N Q T T n Q J.n ",
"^.R W S S D S j H D J P S D P A A F r r 1 , jX6 , $ A.G.#XVXbX-X_.; XXVX0 u.b.) oX{ G.) u.&.*.*.=.q.w.q.6.5.:.m N T m J.T T n T ",
"T I S V a j / @X@XuXxXs D V f tXOXuXOX; 1 kXS.G.0 6 % 0 XXG.ZXZXfX5 mXmX5 w O.` XX_.[ u.a.a.k.p.p.=.c.l.y.t.6.7.:.1.N T T U L.L.",
"N E S P j tX{.=X=X*XdXuXs k OXV.=X{.[ ' P kXG./.D.F.F.6 G.cX-XVXcXy mX+X: y ( P.` XX) b.b.m.m.m.p.=.p.=.l.q.w.q.t.E.!.b m U L.U ",
"y j F a 9Xv.qX&X%X$Xf.6X( #X{.aXf.$X) ) S.P._.#XG.6 0 0 % oXbXNXZXZXBX] t g f S./ D.j.6XV.5X6Xz.v.0.=.=.=.=.w.=.q.w.r.-.;.;.H.;.",
"mX+X/ @X0X5Xm.C.%XsX$XM.}.=X*X%XiX$X! ) S.].].NXbX-X0 0 @ % 5 NXZXSX).t S.t k k ' / j.V.z.z.z.l.2Xl.w.=.=.=.=.&.l.&.l.2X8X8X9X9X",
"oXfX@X{.pXm.6X6X5Xf.5Xf.pX*X*X*X&X$X> ! H.r.x.-XVX-X{ ` 3 3 @ 3 D.XX_ s k H 4 4 s q } j.p.i.=.&.l.=.=.l.l.=.l.=.=.p.d.3X1Xl.l.1X",
".X=XC.&Xm.5X3X4Xj.i.^ iXM.C.C.|.j.h.> ! A._.4.-XVXbXG.` 8 Z.7 < $ 3 8 C 3 8 s a 5 5 5 &.p.&.d.w.w.=.=.=.d.w.&.l.&.l.d.1Xd.d.$.d.",
"a.p.a.a.C.0Xv.l.p.l.k.k.V.m.z.&.j.0.& w F.MXxXxXcXbXoX` 8 A.J J 1 1 A.9 5 8 4 _ 8 5 ) j.k.j.l.a.i.i.i.d.d.d.l.l.l.w.=.l.=.=.d.=.",
"d.l.s.a.k.4X4Xd.&.j.z.x.3Xl.=.w.y.0.& ; 0 bXAX/.XXzXG.` 7 hXgXgX9 K 9 6 0 vXF.5 8 _ x.V.4X0X4Xv.4X4X4X3Xl.&.&.=.=.*.=.w.q.;X:X*.",
"#.=.=.$.=.z.l.&.l.p.$.d.2X2X=.=.=.=.& & 8 zXvX/.K.^._ _ 7 C L L K J 4 y / zXbXs ) ' k.x.0.0.y.c.r.c.c.y.0.9.q.q.q.=.*.*.=.&.=.w.",
"2X=.=.d.i.$.&.c.0.l.d.=.=.q.w.:X=.%.: o $ XXcX/.R G y s 3 7 2 2 1 < - > 4 5 _ 3 4.0.r.t.6.X.....,.;.;.e.E.t.q.q.q.:X:Xw.l.l.p.z.",
"4Xz.c.j.$.@.*.y.q.q.=.q.t.y.w.q.=.=.! o   5 oXXXW D t : = < - - = - : = : = e ..>.e.5.5.:.B B v J.U N J.I.5.B b >.+.w.0.p.k.a.M.",
"4X4XV.k.d.d.y.q.E.7.*.q.t.>.:...q.*.+.@   + _ kXI a 7 = # = = 4 = q q & = - ( >.>.:.b l l v N Q U U T T T N v c b >.y.j.k.V.m.pX",
"5X6X*X&XM.6X`.1.1.7.y.y.| h b 1.I.7.6.! & + @ V V 2 - q = = = = = : : : i ( ;...z l v 1.1.1.N m J.N T T T T T L.m 1.9X8XeXdXC.M.",
"qXC.C.C.5Xv.9.-.-.-.....:.~.!.m c >.6.+.~ & @ O * < q t - < = $ = : y y  .X.| i i i z 1.U.!.!.R.t.1.,.m T N N N J.,.H. .o.v.V.aX",
"'.eXo.o.} o.} y.y...l ..q.7X9.y...>.} #.w.%.y = 2 u x l -.-.] p i >.6.>.......| | z -.t.t.:X=.q.>X8.,.J.c t.>Xt.1.H.;.| ..X.} eX",
"r.c.r.R.y.t.y.y.6.7Xq.y.,Xe.y.t.~.T.y.*.%.e.-.c I M v x l z ,.-.( >.E.t.7.8.t.t.t.y.y.2X&.=.=.;X*.>X;.;.0.:Xq.q.E.Q.).7X8.W.r.r.",
"y.q.`.T.7XE.!.m 7.e.w.%.e.Q.1.-.N N E.E.W.7.,.m n M v v x x n n 1.z z } X.y.c.y.w.c.0.&.j.z.p.0.*.2Xc.j.l.@.*.y.~.Q.Y.).P.r.0.x.",
"!.u u g 1.J.Q E n 1.E.>.-.I.n L.U J.N U.U.1.1.m 1.U.7.8.b b c m 1.7.W.y.t.0.0.r.t.y.R.R.e.r.`.W.E.e.9.l.~ i.l.c.e i f y k h R.0.",
"G a j d G ^.R R U L.m m 1.N Q Y T Q M J.J.n ,.-.E.R.y.0.9.w.r.y.6.t.9.:X=.=.y.t.Q.j d H a g ).(.A A x e.p.a.n.B.dX[.i g d a d 7X",
"Z G nXnXa s H.H.,.T E E N v v N 1.x T T T J.m I.e.0.&.0.&.c.w.0.w.y.w.=.w.w.y.R.f k a A F a u d A D a i v.M.=X=X*X.X].uXj H S S ",
"/ +X[.tXOX/ w wX9X2.U U >X7Xl ..:Xq.t.N x T B I.!.t.y.0.r.0.w.0.0.0.w.e.7XT.y p y OX@X@XuXz t f mX+X' w }.|.B.*X|.b.fX{.OXG J L ",
" XrXV.6XrX.XpXV.0Xv.4.1.8.*.:X=.~ ;Xq.E.1.M B N b | X.|  . .t.c.j.0.c.i y p p uX.XrX|.C.0X8XuXOX'.rX X XrX|.|.=X@X=Xm.C.-XOXA L ",
"qXm.a.a.m.qX6XqXN.aX|.C.a.j.0.l.i.i.w.T.1.U N 1.:.>.;.;.;.;.>.}  .9X( ( {.{.=X}.qXV.0Xv.eXrX.X{.C.pX|.}.M.M.qXeXH.H.4.`.eXyX@X/ ",
"4Xz.s.s.k.z.4XqXqXm.M.C.aXm.z.0.d.z.c.e.,.,.1.| >.R.9XeX9X[.8X9X9X9Xv.rX.X|.aXC.m.4X8X3. .[ [.dX6XC.}.eXwX4X`.<.I U x 6.'.eXuX#X",
"w.y.0.l.d.l.0.l.x.j.6X6X5X=.=.=.=.0.r.2.H.].tXeX4X6X0X0X0X0X0X3XwX%.d.d.@.$.l.v.eX3. .| <.,.H.<. X].P.,.-.l 1.J.L.L.N b >.-.<.Q.",
":.:.8.t.e.w.w.9.t.0.r.t.q.q.w.*.0.y.c.R.r.c.l.&.s.d.k.j.p.j.a.d.d.@.i.@.$.;X=.l.c.3.r.8Xt.-.b 1.3. .,.T T Q Y Y R I c N m c T L.",
"U T 1.B 5.7.y.y.:.J.L.T x :.e.2X#.#.=.l.d.d.i.$.$.$.d.=.w.=.=.=.$.l.d.%.c.w.%.&.=.l.w.w.=.q.q.+.%.X.1.H.B T Q Y U m J.2.J.L.R I ",
"Y T m v b b >.>.;.h T n I.-.e.0.2X=.=.=.$.$.$.=.;X=.=.q.w.&.&.d.5X5XV.V.z.&.l.d.=.=.=.=.%.;X:X:X>Xt.~.).Y.J.v M 1.I.-.c J.L.I E ",
"T Y Y J.b ..c | ;.2.eX8X XO.i.l.#.#.=.<X=.&.=.=.%.=.w.l.j.p.n.pXC.B.*X=X|.k.j.p.d.$.#.:Xq.t.e.E.8.b n K.J.J.N -.R.R.8.b B Y I Y ",
"T T J.Y.7Xt.E.!.R.'.6X6X*Xm.a.@.:X=.=.%.=.d.l.w.:Xy.y.3XqX6X$X%X%X*X=XB.|.|.V.4X$.;X;X*...:.1.v B v E R U m :.t.y.9.7X>Xv Y Y Y "
};
